<?xml version="1.0" encoding="UTF-8"?>
<svg width="512" height="512" viewBox="0 0 512 512" fill="none" xmlns="http://www.w3.org/2000/svg">
    <!-- Background -->
    <rect width="512" height="512" rx="128" fill="url(#b)"/>
    <clipPath id="a">
        <path d="M0 0h512v512H0z"/>
    </clipPath>
    <g clip-path="url(#a)">
        <path d="M0 0h512v512H0z"/>
        <rect x="24" y="24" width="464" height="464" rx="118" fill="url(#middle-gradient)"/>
        <!-- Subtle Grid Lines -->
        <g opacity="0.1">
            <path d="M60 64 L452 64" stroke="#4dff4d" stroke-width="8"/>
            <path d="M32 128 L480 128" stroke="#4dff4d" stroke-width="8"/>
            <path d="M32 192 L480 192" stroke="#4dff4d" stroke-width="8"/>
            <path d="M32 256 L480 256" stroke="#4dff4d" stroke-width="8"/>
            <path d="M32 320 L480 320" stroke="#4dff4d" stroke-width="8"/>
            <path d="M32 384 L480 384" stroke="#4dff4d" stroke-width="8"/>
            <path d="M60 448 L452 448" stroke="#4dff4d" stroke-width="8"/>
            
            <path d="M64 60 L64 452" stroke="#4dff4d" stroke-width="8"/>
            <path d="M128 32 L128 480" stroke="#4dff4d" stroke-width="8"/>
            <path d="M192 32 L192 480" stroke="#4dff4d" stroke-width="8"/>
            <path d="M256 32 L256 480" stroke="#4dff4d" stroke-width="8"/>
            <path d="M320 32 L320 480" stroke="#4dff4d" stroke-width="8"/>
            <path d="M384 32 L384 480" stroke="#4dff4d" stroke-width="8"/>
            <path d="M448 60 L448 450" stroke="#4dff4d" stroke-width="8"/>
        </g>
        <!-- Activity Line -->
        <path stroke="#53ec7c" stroke-width="24" stroke-linejoin="round" stroke-linecap="butt" d="M24.01 255.991h86.726c16.128 0 5.784.693 10.042 0 4.258-.692 7.171 18.006 15.508-4.155 8.338-22.16 26.45-153.162 34.516-128.81s4.337 256.04 13.879 274.921c9.542 18.882 31.06-143.497 43.372-161.632s23.463 51.316 30.5 52.826c7.038 1.51 7.91-40.218 11.726-43.765s6.494 20.637 11.17 22.483c4.677 1.845 9.055-9.51 16.89-11.41 7.836-1.903 19.514.088 30.124 0 10.61-.09 13.781-.446 33.537-.535s64 0 85 0h40.991"/>
    </g>
    <defs>
        <linearGradient id="b" x1="0" y1="0" x2="512" y2="512" gradientUnits="userSpaceOnUse">
        <stop offset="0%" style="stop-color:#cfe7ec"/>
        <stop offset="100%" style="stop-color:#757676"/>
        </linearGradient>
        <linearGradient id="middle-gradient" x1="0" y1="0" x2="512" y2="512" gradientUnits="userSpaceOnUse">
            <stop offset="0%" style="stop-color:#323232"/>
            <stop offset="100%" style="stop-color:#161616"/>
        </linearGradient>
    </defs>
</svg> 