<svg width="512" height="512" viewBox="0 0 512 512" fill="none" xmlns="http://www.w3.org/2000/svg">
  <rect width="512" height="512" rx="128" fill="url(#a)"/>
  <svg xmlns="http://www.w3.org/2000/svg" width="512" height="512" viewBox="0 0 256 256">
    <g stroke-miterlimit="10" font-family="none" font-weight="none" font-size="none" text-anchor="none" style="mix-blend-mode:normal">
      <path d="m170.667 76.8-25.6-25.6h-34.134l-25.6 25.6h-12.8v119.467c0 9.386 7.68 17.066 17.067 17.066h76.8c9.387 0 17.067-7.68 17.067-17.066V76.8z" fill="#777"/>
      <path d="M130.133 192h-4.266c-3.414 0-6.4-2.987-6.4-6.4v-81.067c0-3.413 2.986-6.4 6.4-6.4h4.266c3.414 0 6.4 2.987 6.4 6.4V185.6c0 3.413-2.986 6.4-6.4 6.4M160 192c-3.413 0-6.4-2.987-6.4-6.4v-81.067c0-3.413 2.987-6.4 6.4-6.4s6.4 2.987 6.4 6.4V185.6c0 3.413-2.987 6.4-6.4 6.4m-64 0c-3.413 0-6.4-2.987-6.4-6.4v-81.067c0-3.413 2.987-6.4 6.4-6.4s6.4 2.987 6.4 6.4V185.6c0 3.413-2.987 6.4-6.4 6.4" fill="#555"/>
      <path d="M72.533 59.733h110.934c4.693 0 8.533 3.84 8.533 8.534V76.8H64v-8.533c0-4.694 3.84-8.534 8.533-8.534" fill="#888"/>
    </g>
  </svg>
  <defs>
    <linearGradient id="a" x1="0" y1="0" x2="512" y2="512" gradientUnits="userSpaceOnUse">
      <stop offset="0%" style="stop-color:#eeeeeedb"/>
      <stop offset="100%" style="stop-color:#cccccc90"/>
    </linearGradient>
  </defs>
</svg>
