<svg version="1.2" xmlns="http://www.w3.org/2000/svg" viewBox="0 0 1024 1024" width="1024" height="1024"><path d="M481.5 13.6c-2.2.2-9.6.9-16.5 1.4-6.9.6-18.6 2-26 3.1-7.4 1-18.2 2.8-24 4-5.8 1.1-18.1 4-27.5 6.4s-22.9 6.2-30 8.5-20.4 7.1-29.5 10.7-24.6 10.4-34.5 15.2-24.1 12.2-31.5 16.6c-7.4 4.3-19.3 11.7-26.5 16.4-7.2 4.8-17.7 12.2-23.5 16.6-5.8 4.3-15.7 12.2-22 17.4s-20.5 18.5-31.5 29.6c-11.1 11-24.4 25.2-29.6 31.5s-13.1 16.2-17.4 22c-4.4 5.8-11.8 16.3-16.6 23.5-4.7 7.2-12.1 19.1-16.4 26.5-4.4 7.4-11.8 21.6-16.6 31.5S50.3 319.9 46.7 329s-8.6 23-11.2 31c-2.5 8-6 19.9-7.6 26.5-1.7 6.6-4.1 17.1-5.5 23.3-1.3 6.1-3.5 18.5-4.8 27.4-1.4 9-3.1 21.9-3.8 28.8-.8 7.7-1.3 25.6-1.3 46.5s.5 38.8 1.3 46.5c.7 6.9 2.4 19.8 3.8 28.8 1.3 8.9 3.5 21.3 4.8 27.4 1.4 6.2 3.8 16.7 5.5 23.3 1.6 6.6 5.1 18.5 7.6 26.5 2.6 8 7.6 21.9 11.2 31s10.4 24.6 15.2 34.5 12.2 24.1 16.6 31.5c4.3 7.4 11.7 19.4 16.4 26.5 4.8 7.1 12.2 17.7 16.6 23.5 4.3 5.8 12.2 15.7 17.4 22s18.5 20.5 29.6 31.5c11 11.1 25.2 24.4 31.5 29.6s16.2 13.1 22 17.4c5.8 4.4 16.3 11.8 23.5 16.6 7.2 4.7 18.6 11.9 25.5 15.9s18.7 10.3 26.3 14.1c7.5 3.8 19.9 9.5 27.4 12.8 7.6 3.2 19.7 8 26.8 10.5 7.1 2.6 13.1 4.5 13.2 4.4.1-.2-4.4-3.9-10-8.3s-15.5-13.4-22.2-20c-6.6-6.6-15.4-16.3-19.6-21.5S292 922.5 288 916.5c-4.1-6-10.2-16.4-13.6-23-3.5-6.6-8.4-17-10.9-23-2.6-6-6.1-16-8-22-1.8-6-4.3-15-5.4-20s-2.8-13.3-3.6-18.5-2-16.7-2.6-25.5c-.9-11.9-.9-20.1 0-32 .6-8.8 1.8-20.3 2.6-25.5s2.5-13.5 3.6-18.5 3.6-14 5.4-20c1.9-6 5.4-16 8-22 2.5-6 7.4-16.4 10.9-23 3.4-6.6 9.5-17 13.6-23 4-6 10.7-15.3 14.9-20.5s12.8-14.7 19.1-21 15.8-14.9 21-19.1 14.4-10.9 20.5-14.9c6.1-4.1 16.4-10.2 23-13.6 6.6-3.5 16.9-8.4 23-10.9 6.1-2.6 15.9-6.1 22-8 6.1-1.8 14.8-4.2 19.5-5.3 4.7-1.2 15-3.1 23-4.3 11.7-1.8 18.8-2.2 37-2.2 16 0 26.1.5 35 1.7 6.9.9 17.5 2.8 23.5 4.1s15 3.6 20 5c5 1.5 13.3 4.2 18.5 6.2 5.2 1.9 14.5 5.9 20.5 8.7 6 2.9 15.5 7.8 21 11.1 5.5 3.2 12.9 7.9 16.5 10.4s10.8 7.9 16 12.1c5.2 4.1 14.2 12.2 20 18s13.9 14.8 18 20c4.2 5.2 9.6 12.4 12.1 16s7.2 11 10.4 16.5c3.3 5.5 8.2 15 11.1 21 2.8 6 6.8 15.3 8.7 20.5 2 5.2 4.7 13.5 6.2 18.5 1.4 5 3.7 14 5 20s3.1 16.4 3.9 23 1.8 17.9 2.2 25c.3 7.1.1 19.5-.5 27.5s-1.8 18.8-2.6 24-2.5 13.5-3.6 18.5-3.6 14-5.4 20c-1.9 6-5.4 16-8 22-2.5 6-7.4 16.4-10.9 23-3.4 6.6-9.5 17-13.6 23-4 6-10.7 15.3-14.9 20.5s-13 14.9-19.6 21.5c-6.7 6.6-16.6 15.6-22.2 20s-10.1 8.1-10 8.3c.1.1 6.1-1.8 13.2-4.4 7.1-2.5 19.2-7.3 26.8-10.5 7.5-3.3 19.9-9 27.5-12.8 7.5-3.8 19.3-10.1 26.2-14.1s18.4-11.2 25.5-15.9c7.1-4.8 17.7-12.2 23.5-16.6 5.8-4.3 15.7-12.2 22-17.4s20.5-18.5 31.5-29.6c11.1-11 24.4-25.2 29.6-31.5s13.1-16.2 17.4-22c4.4-5.8 11.8-16.4 16.6-23.5 4.7-7.1 12.1-19.1 16.4-26.5 4.4-7.4 11.8-21.6 16.6-31.5s11.6-25.4 15.2-34.5 8.6-23 11.2-31c2.5-8 6-19.9 7.6-26.5 1.7-6.6 4.1-17.1 5.5-23.2 1.3-6.2 3.5-18.6 4.8-27.5 1.4-9 3.1-21.9 3.8-28.8.8-7.8 1.3-25.6 1.3-47 0-26.4-.5-38.4-1.8-51-1-9.1-2.9-23-4.3-31-1.3-8-3.6-19.9-5-26.5-1.5-6.6-4.4-18.3-6.5-26s-6.4-21.4-9.5-30.5-8.6-23.5-12.2-32-10.2-22.7-14.7-31.5-11.2-21.2-15-27.5-10.4-16.9-14.8-23.5-12.1-17.4-17.1-24-13.1-16.7-18-22.5c-5-5.8-14.9-16.5-22-23.9-7.2-7.3-19-18.5-26.1-24.8s-19.1-16.1-26.5-21.7c-7.4-5.7-18.9-13.9-25.5-18.3s-17.2-11-23.5-14.8-18.7-10.5-27.5-15-23-11.1-31.5-14.7-22.7-9-31.5-12.1c-8.8-3-21.9-7.1-29-9.1s-18.9-4.9-26-6.5-20-4.1-28.5-5.5-22-3.3-30-4.2c-9.2-1-26.1-1.7-46.5-1.9-17.6-.2-33.8-.1-36 .1" style="fill:url(#a);stroke:url(#a);stroke-width:24px"/><defs><linearGradient id="a" x1="0" y1="0" x2="512" y2="512" gradientUnits="userSpaceOnUse"><stop offset="0%" style="stop-color:#969"/><stop offset="100%" style="stop-color:#66c"/></linearGradient></defs></svg>