<svg width="96" height="96" xmlns="http://www.w3.org/2000/svg">
 <g id="Layer_1">
  <title>Layer 1</title>
  <rect rx="14" id="svg_1" height="64" width="64" y="16" x="16" stroke="#000" fill="#58e2e2"/>
  <path id="svg_2" d="m44.34281,71.81501c-7.80456,-1.1801 -14.78806,-6.42441 -18.11139,-13.58149c-4.00919,-8.46498 -2.54664,-19.24708 3.82963,-26.17294c6.23562,-7.30354 17.05151,-9.93206 26.03137,-6.69396c9.37863,3.20317 16.15544,12.73284 15.95787,22.66515c0.19468,9.74786 -6.31554,19.10097 -15.4341,22.46902c-3.89723,1.52574 -8.14539,1.83132 -12.27338,1.31422l0,0zm1.40466,-14.81419c-0.01437,-1.17505 -0.02874,-2.3501 -0.04311,-3.52516c-3.29887,3.30027 -6.59774,6.60055 -9.89661,9.90083c2.83638,2.26672 6.30391,3.67052 9.89661,4.13937c0.04746,-3.50482 0.08638,-7.00991 0.04311,-10.51504zm7.79688,9.84288c2.33419,-0.68908 4.57553,-1.78648 6.46833,-3.32064c-1.49801,-2.1678 -3.64525,-3.89914 -5.45708,-5.83889c-1.42868,-1.42812 -2.85736,-2.85625 -4.28604,-4.28437c0,4.70856 0,9.41713 0,14.12569c1.1071,-0.14726 2.20072,-0.37433 3.27479,-0.68179l0,0zm-7.7599,-28.99857c0,-3.10237 0,-6.20473 0,-9.3071c-8.33331,0.89852 -15.72143,7.63888 -17.01617,15.97925c-0.95159,5.48208 0.35625,11.39974 3.91419,15.734c4.36733,-4.36635 8.73465,-8.7327 13.10198,-13.09905c0,-3.10237 0,-6.20473 0,-9.3071l0,0zm18.64417,20.93791c4.81233,-7.18208 4.11101,-17.56891 -1.87106,-23.88115c-3.15945,-3.50164 -7.58655,-5.85467 -12.288,-6.36385c0,6.20376 0,12.40752 0,18.61128c4.27726,4.21686 8.41685,8.57983 12.83963,12.64419c0.61991,0.73388 0.93099,-0.76398 1.31943,-1.01047z" stroke="#000" fill="#7f00ff"/>
 </g>
</svg>
