<svg xmlns="http://www.w3.org/2000/svg" xml:space="preserve" viewBox="0 0 426.29 211.156" version="1.0"><path d="M41.704 14.143q.06-.025.06-.042c0-.07-.028-.031-.06.042m101.38 118.38s-1.91-.398-1.993-.637c-.079-.238-3.346-3.106-3.421-3.026-.085.078-1.359-1.28-1.519-.877-.156.398-2.628.398-2.628.398l-2.629-.642s-1.112.802-.875.479c.239-.318.079-2.229 0-1.908-.079.315-3.985-1.675-3.985-1.675l-1.357 1.195v-1.514l-2.066-1.273.241-1.674-.963-.797s-.155.238-.235.08-.638-3.345-.638-3.345l-3.03-2.471-3.661-.16-3.348-1.837-.717-1.67s-1.913-.873-1.913-1.113c0-.238-.552-.078-.716-.161-.155-.077-.075-.872-.075-.872l-.883-.722-.315-.214-.779-.236-.477-.666s1.733-.774 1.554-.712c-.175.056-3.881.593-3.881.593l-.358.715-1.734-.894-2.927-.181s-2.095-.834-2.035-1.072c.063-.24-.656-1.136-.656-1.136s-.478 1.136-.598 1.255c-.118.119-1.61 1.374-1.61 1.374l.115 1.915-1.014-1.08.719-1.016v-1.432c0-.183.896-.598.896-.598l-.359-.774s-1.073.298-1.073.478c0 .178-1.434 1.014-1.434 1.014l-1.735.656h-.776s-.775 1.252-.96 1.315c-.177.061-.113 1.198-.113 1.198s-1.917 2.146-2.037 1.908-2.146-1.908-2.146-1.908l-2.395.294-1.372.72-1.674-1.136-1.313-2.031.123-2.389.715-2.633.298-1.729-1.793-1.318s-3.644.299-3.644.12c0-.176-1.975.063-1.913-.12.057-.177.717-1.312.717-1.494 0-.18.48-1.552.48-1.552l.777-1.552 1.015-2.982.595-1.021-2.985-.178-1.794.716-1.015 2.99-5.08 1.373-1.254-.955s-.12.538-.056.239c.056-.298-1.555-2.393-1.555-2.393l-.778-2.924s2.034-6.039 1.97-5.916c-.059.117.064-2.215.064-2.215l6.392-4.18 2.447.358.597.597 1.497-.243 1.493-1.491 1.907.25 1.85-.357 1.138 1.256 1.669-.656.897.958.542.593v1.019l-.418.954.418 2.152 1.194 1.675.776.297.956-2.628-.181-2.45-.417-1.977v-1.433l2.452-2.981 3.163-2.274 2.51-1.434 2.211-2.389-.119-2.271.961-.177.947-2.03.957.112 1.856-2.328 3.103-1.072 1.916-.357.598-.657-.717-.597 1.492-2.215 4.722-1.852 2.87-.836-2.334 1.495.478 1.133 1.733-.477 1.256-.775 3.285-.895s.781-1.317.658-1.018c-.115.298 1.675-.299 1.675-.299l-.357-.719.119-.955-.954.359-1.441 1.553-2.327-.114-1.073-1.617 1.015-1.374s1.014-2.032.955-1.909c-.061.116-1.611-.48-1.611-.48l-2.332.833c-.238 0-2.449 1.316-2.391 1.138.061-.179-1.136.657-1.136.657l3.046-2.446 1.257-.182 1.435-1.317h6.871l2.331-.479 3.105-1.671.243.3-1.316 1.252-1.614 1.674-1.557 1.67-.775 1.018 2.45.119s1.91.048 2.092 0c.239-.06.298.835.298.835l1.014-.716.541 1.374 1.794-1.374-.541-1.554.481-1.437-2.092.064v-.778s-.775-.896-.836-.778c-.062.121 1.194-1.013 1.133-.894-.059.12-.54-.596-.54-.596l1.439-1.798-.716-2.028-.243-1.013-1.853-.897-.656-.898-.839-.656.66-1.555-.3-1.134s-.535-3.706-.595-3.588c-.063.121-2.514 2.034-2.514 2.034l-2.505 1.257-1.319-1.136.124-1.498 1.135-1.074-1.856-.597-.119-.478s-1.672-1.673-1.79-1.555c-.12.124-.538.542-.538.542l-3.945-.364-1.373 2.392-.298 1.254s-2.161 2.162-2.425 2.329c.158-.046 1.169.96 1.169.96l-.899 2.147-3.405 1.972-1.67.242s-1.018 3.707-.958 3.944c.059.241-1.373.894-1.373.894l-1.016.718-.42-1.312s-.458-1.004-.64-1.258c.267.11 1.237.239 1.237.239l.182-.839-.958.062.42-1.375.896-1.491-3.109-.24-.71-.838-1.558-.24-.123-.659-1.075-.655-1.316-.597-1.431.179-.061-1.252.365-1.195-1.431-.238s2.51-2.572 2.45-2.452c-.064.119 7.047-3.529 7.047-3.529l.839-.892 1.372-.123 2.987-1.371 2.271-1.553.239.12-1.729 1.612-.478.594-1.375.659 1.256.178-.183.72 1.377-.24 1.372-1.136 1.08.362.479.533 1.491-.06-.06-1.134-2.327-1.671-.544-.537-.236-.599 1.012.124.843.716.894-.9 1.792-.235 1.792-1.26-.116-.775 1.372-1.313-.899-.954 2.392-.06 2.087.06s1.019-.477 1.199-.179 1.732 1.431 1.732 1.431l-.597.538-2.453.302-.597 1.191 1.797.242 1.371-1.433 1.492-.121.24 1.431s-1.671.958-1.909 1.017c-.239.064-1.257.537-1.257.537l-.06 1.079-1.613.177-1.672-.296-.775.058-1.257 1.014 1.016.896s1.495-.597 1.733-.775 1.015-.539 1.193-.238c.179.298 1.192 1.134 1.192 1.134l.843 1.618.776.237 2.387.776s1.675.419 1.675.536c0 .12-.175-1.014-.175-1.014l-1.263-1.495s-.055-.418.358-.302c.423.119 1.44 1.013 1.44 1.013.176.06 1.373.783 1.373.783l.477-1.316 1.074-.658-.415-.777-.599-.655-.656-.777.058-.895s.18-.124.359-.239c.178-.118.716-.537.837-.302.117.239 1.317 1.794 1.317 1.794l1.13.237.541-.894s1.491-.181 1.491-.12c0 .06.12-.716.12-.716l1.376-.357-1.97-1.738-1.074-.539-.84.24-.771-.896.834-.774.361-1.078-.957-.955-1.494-.298-.362-.78s-1.252-.178-1.432-.061c-.181.124-1.076-1.073-1.076-1.073l-.777-1.014c-.121-.061-.538-.482-.776-.419-.243.06-2.749.119-2.749.119l-.597.18-.775-.6-3.11.779L113 13.094s-.118-.718 0-.896c.116-.179 1.252-.836 1.432-.955s-1.373-.182-1.373-.182-2.87.958-2.989 1.137c-.119.178-2.331 1.91-2.331 1.91l.064 1.435 2.029.301.776.175-.538.481-.417.895-1.313.717-1.617 1.193-1.374.537-.237-.954 1.194-.717s-.239-1.491-.359-1.373c-.119.12-1.372-.059-1.433.12-.058.18.061-1.133.061-1.133l-.061-1.257-.298-.959s1.017-.835 1.193-.894c.18-.06 2.092-.18 2.092-.18l3.048-1.732-2.511-.117s-2.327.057-2.449.299c-.12.239-1.67 1.85-1.67 1.85l-.957.717-3.167 1.975-.121 1.372-1.313-.238-.954-.18-2.387.955v1.314l-4.369.242s-2.088-.302-2.088-.597c0-.302-.776-.898-1.014-.898-.243 0-2.931.836-2.931.836l-.119.835-3.107-.176s-2.568.474-2.508.238c.06-.238-1.376-.121-1.376-.121l2.151-.956-1.491-.717-2.693-.417-1.91-.597-2.147.299-.239-.895-1.916.774-.538-1.255-1.313.599s-4.899 1.015-5.139 1.074c-.237.061-1.431-.478-1.431-.478l-1.499.716-2.864.179-1.138-.835-2.329-.477-2.57.119-4.783-.779s-2.746-.418-2.567-.481c.179-.06-1.491-.478-1.491-.478s.067-.199.119-.315c-.586.248-5.258 1.031-5.258 1.031l-6.272 2.035-4.124.835s.119 1.075.177 1.253c.061.183.419 1.375.419 1.375l-1.134.239h-1.2l.603-.835-6.101 1.672.125.657-.421.777 1.912.179 1.615.179s.896-.536.896-.357-.478 1.55-.478 1.55l-1.851.12c-.119-.179-1.077.063-1.077.063s-1.257.771-1.316.597c-.06-.179-2.506.418-2.506.418l-2.812 1.614-1.073 1.612-.119 1.193 2.091-.355-1.197 1.615 1.375-.063s1.615 0 1.734.243c.121.239.835.12.835.239 0 .121-14.22 5.616-14.341 5.438-.101-.183-2.19.954-2.19.954s2.745-.477 2.928-.477c.178 0 4.239-.958 4.239-.958l1.913-.538s4.124-1.194 4.179-1.374c.061-.181 2.931-1.674 3.11-1.674.18 0 1.135-.417 1.197-.177.057.238 4.122-1.073 4.122-1.073s1.432-1.019 1.316-1.198c-.124-.179-.958-.657-.719-.715.238-.061 2.386-.362 2.386-.362s3.229-1.312 3.17-1.135c-.06.181-3.286 2.334-3.286 2.334l4.602-.898 1.854-.779s1.552-.716 1.433-.536c-.12.179 1.793.715 1.793.894s4.001.779 4.001.779l1.196 1.793-.242 2.328-.118 2.931 2.15-.24-.535 1.911.123 3.169s.115 1.134.115 1.313-1.673-.357-1.673-.357-.24 1.373-.061 1.551c.186.179 2.155 2.151 2.155 2.151l-.658.838-1.497 3.704-3.525 4.061-.595 2.216-1.734 1.909.299 1.375s-.478.958-.354 1.076c.115.118.834 6.632.834 6.632l2.511 1.552.655 1.196.359 4.899 1.073 2.21-1.193.837 1.373 1.908.539.063 1.079 1.252-.421 1.675 1.133.895 1.078 1.674.18.835 1.017-1.014-1.017-2.091s-.717-1.557-.657-1.911c.06-.36-.954-3.049-.954-3.049s-.961-2.033-.838-2.211c.116-.181-.721-1.372-.721-1.372l.421-2.449 1.733.358s.299 2.266.299 2.509c0 .238.419 1.673.419 1.673l2.269 3.162-.356 1.616 4.359 5.197-.06 2.093-.658 1.013.358 1.437 3.647 2.688.596-.118 1.074 1.076 3.942 1.973 1.973.479 2.334-.719 1.492.719 2.271 2.628 2.33.595 2.387.84h1.141l.299 1.371s1.075 1.376 1.314 1.555c.237.179.06 1.734.06 1.734l1.014.534 1.196 1.257.776.72.839.954.536-.358 1.076.297 1.55 1.437 1.016-.601-.292-1.133.948-.955h.839l.898.715-.061.837 1.075 1.732.061 4.84-.956 1.556-1.317.896-.056 1.43-1.377.537-.537 1.913-.838 1.674.179 1.432 1.197 1.076-1.078 1.141-.774 1.132.711 2.26s.357 1.138.357 1.017c0-.119 1.141.781 1.141.781l2.09 4.177 2.028 2.933s2.951 5.947 3.011 5.994c.891.655 7.393 5.338 7.393 5.338l1.109 5.815.324 12.267.954 3.51-.402 7.091-.315 1.432s1.273 2.23 1.273 2.552c0 .318.238 3.103.238 3.103l.875 3.028 1.035-.078-.637-1.752.799.08.553 2.786.079 1.113-.632-.557-.56.557-.399.48.797.72-.397 1.108-.158 1.438 1.115.16.796.636-.796 1.354s4.936 8.684 9.08 9.717a544 544 0 0 1 5.338 1.356l1.756-.957.551-.715-3.661-1.274-2.788-3.032-.56-1.59.876-.635-.157-1.198s0-.875.314-1.113c.322-.238.958-1.434.958-1.434l-.958-.479-1.591-1.591.159-1.837.958-.553s.077-1.039-.08-1.277c-.163-.236.239-1.435.478-1.513.241-.082.872-1.039.872-1.039h-1.11l-.636-.236-.8-1.271v-.96l1.354.398 1.279-.24.716-1.035s-.239-.636-.318-.874.159-1.276.397-1.356c.238-.075 1.671.08 1.671.08l2.71-.715s1.037-1.835.958-2.153c-.08-.318-.08-1.354-.08-1.354s0-.715-.636-.8c-.641-.077-.641-.312-.8-.957-.162-.635-.641-1.352-.641-1.352l-.794.16.719-.715 1.593 1.191 2.388.403 1.834-1.835 1.276-3.108.556-2.311h1.193l1.273-2.31.481-2.15-.398-2.632.557-.951 4.141-2.789 3.11-1.037 1.04-.8s1.588-2.148 1.588-2.387.639-3.348.639-3.348.715-3.66.633-3.898c-.077-.243.162-3.428 0-3.508-.16-.078.082-.958.082-.958l3.028-4.3 1.434-3.27s1.04-1.671.879-1.989c-.15-.35-1.02-3.06-1.02-3.06zm31.5-116.62s.481-2.393.123-2.632c-.363-.238 1.434-1.672 1.434-1.672s2.625-1.196 2.745-1.551c.119-.361-.716-.246-.716-.246l.237-1.79 1.676-.597s-.954-1.436-1.197-2.154c-.236-.71 2.87-1.072 2.87-1.072l5.497-2.509-6.57.716-.243-.834-6.93-1.555-13.857.481-1.55.836h-4.787l-6.689.598s-6.333.834-6.692 1.072c-.356.241.718.599.718.599l-.119.837-7.771.958-.475.836.954.955c.117.119 3.346.835 3.346.835l3.825.478s2.152.957 2.506 1.312c.362.358.246 1.439.124 2.036-.124.598-.478.716-.955 1.433-.48.719.955.358.955.358l1.674.835s-.478 0-1.198.124c-.72.119-1.674.354-1.674.354l-.119 1.319 2.394-.477-.246.834-1.67.358-1.66 2.029-.121 3.824.357 3.226.956 2.63 1.555.239 1.793 1.076 2.393-.122 2.386-3.225 2.508-2.39.718-1.314 1.198-.716 2.625-.596 3.348-.72 3.466-2.271c.355-.238 8.959-2.863 8.959-2.863l1.9.118zm2.4 8.72 3.346-1.074.713-1.313-1.31-1.074-6.098.716-1.792-1.078-2.148 1.197s1.074.478 1.432.716c.358.239 1.075-.238 1.075-.238v1.075s1.912 1.074 1.67 1.435c-.24.357 3.11-.362 3.11-.362zm5.89 16.29-.677.442-.2.759.598.357.957.199.992-.239.842-.478.236-.238 1.395-.086.159-.591.322-.6v-1.713l.756-.439-.243-1.112-1.192-.278-.955-.16-.636.198-.365.517s-.59.638-.473.515c.123-.115.437-.115.362.083-.083.198-.405.397-.405.397h-.47l-.407-.239-.594.079-.201.359.244.558-.403.4.478.399.476.115-.074.56-.55.236zm4.74-4.697c.28.116.397.279.358.396-.035.124.598.202.598.202l.52-.118-.358.557s.078.359.196.519c.123.159.522 0 .522 0s.957-.16 1.077-.12c.116.038-.043.398-.043.398l.362.556s.195.798.235 1.035c.043.243-.319.158-.319.158s-.75.119-.917.084c-.159-.04-.474.275-.752.592-.281.325.04.202.04.202h.592s.047.396.084.561c.036.159-.479.315-.635.275-.159-.038-.878.321-.878.321l.037.598.879.079.878.12.159.278s-.564.12-.72 0c-.159-.119-.637.637-.637.637l-.437.478-.92.716.517.24.32-.4.801.04.87-.119s.523-.637.643-.637c.116 0 1.353-.038 1.353-.038s.996-.2 1.115-.12.917.241 1.041.279c.117.039 1.67-.438 1.67-.438s.317-.517.396-.676c.083-.159-.435-.318-.554-.438s.396-.278.637-.397c.237-.119.317-.559.438-.756.115-.197-.161-.601-.201-.717-.038-.123-.597-.086-.755-.123-.159-.041-.836.037-.836.037l.036-.796s-1.872-2.548-1.832-2.667c.04-.116-.438-.876-.637-.913-.199-.04-.439-.205-.678-.523-.237-.316.319-.717.319-.717s.675-.716.756-.874c.08-.16-.082-.637-.199-.677-.121-.039-1.511.04-1.511.04s-.397-.318-.36-.437c.041-.125.439-.162.56-.162.113 0 .835-1.391.994-1.431.158-.043-.121-.398-.121-.398l-.555.232-.518.762s-.482.119-.677 0c-.197-.12-.599 0-.758-.04-.159-.045-.523.478-.523.478s-.552.597-.713.636c-.159.04-.717.677-.677.716.043.04.079.56.079.56s-.119.196-.318.236c-.198.039.158.716.158.716l.482.242s-.283.276-.441.239c-.16-.044-.52.4-.24.517zm187.37-8.642c0-.033-.018-.033-.052-.013.04.026.05.035.05.013zm-48.91 70.304c.08-.119 1.193-.677 1.232-.959.042-.273.837 2.594.837 2.594l.562 1.99s.434 1.432.594 1.712c.16.281.395 2.112.395 2.272 0 .158.524 1.23.283 1.352-.244.119-.637.039-.561.2.084.157.277 1.035.277 1.2 0 .157-.117 1.229-.193 1.429-.084.2-.119.718-.119.953 0 .241.152.683.152.798 0 .122.123.32.123.32s.162.082.238-.12c.082-.2.678-.278.761-.2.077.082.992 1.153 1.074 1.476.078.316 1.074 1.873 1.191 2.031.121.16.641.679.316 1.115-.316.438-.316.517-.273.755.039.238.16 1.113.555 1.597.403.475 1.234 1.391 1.234 1.391s1.039.722 1.199.921c.156.197 1.312.316 1.435.793.114.477.435.959.435.959s.914.276.914.399c0-.099-.006-1.49-.116-1.68-.117-.194-1.072-2.148-1.196-2.266-.116-.121-.315-.398-.196-.911.119-.524-.081-1.879-.081-1.879l-1.872-2.232s-1.634-1.594-1.673-1.512c-.039.078-1.277-.479-1.229-.957.032-.477-.129-1.67-.486-1.95-.354-.277-.673-.719-.952-.877-.277-.163-.078-1.675 0-1.874.077-.199.715-1.949.678-2.066-.044-.119.158-1.752.158-1.752s.516-.684.635-.443c.123.238.678 0 .518.717-.158.722-.076 1.16-.076 1.16l1.43-.282.999 1.038.719.953.915.559s.238 1.077.357 1.152c.122.083.718-.238.718-.238l.916.642s-.52.953-.396 1.196c.117.238.233 1.072.233 1.072l.88-.718 1.118-.836.557-.797.199-.596 1.59-.681 1.515-1.393-.037-2.949-.479-1.83-1.354-1.913-2.632-2.627-1.031-1.274s-.719-.916-.682-1.153c.041-.243.196-1.514.196-1.514l.722-.679 1.396-1.394s.955-.637 1.115-.479c.158.16 1.432.12 1.473.238.037.12.204.082.117.318-.08.238.039 1.316.158 1.436.123.12.403.236.522.278.112.038.516-.121.557-.359.041-.237-.041-1.075 0-1.275.041-.198.119-.198.24-.238.119-.04.713 0 .713 0l.641-.637 1.113.398 1.195-1.038s.639-.116.719-.038c.078.083 1.118-.795 1.118-.795l1.074-.24.953-.399s.398-.917.398-.799c0 .121 2.313-2.307 2.313-2.307l.756-1.873.914-2.668.557-3.31.042-.954s-.878.715-.995.758c-.121.037-.836-.158-.836-.158l.555-.998s.32-.716.16-.756-.957-.278-.957-.278.343-.784.394-.835c-.073 0-1.386-1.356-1.386-1.356s-1.755-2.509-1.835-2.312c-.08.2-1.432-.954-1.556-.954-.114 0-.196.039-.274-.198-.08-.24 1.195-1.913 1.234-2.037.039-.115 1.152-1.353 1.356-1.312.194.04.873.079.873.079s-.163-.795-.28-.835c-.116-.039-2.824-.278-2.824-.278s-1.074.637-1.115.796c-.046.159-.914.081-.914.081l-.122-.917-1.081-.517-1.231-.438.042-.837s.753-.277.874-.363c.119-.08 1.074-.553 1.152-.955.08-.399.719-1.035.801-1.155.078-.119.594-.557.711-.477.123.079.884.637.799.677-.075.039-.593.878-.479 1.113.124.243.681.961.603 1.078-.078.122-.32.56-.32.56l.598-.08s.756-.597.715-.676c-.039-.086.598-.758.717-.758s1.437-.283 1.471-.164c.043.121 1.358.438 1.358.438l.24 2.394s3.187.756 3.187.956c0 .198-.36.515-.36.515s-.04.638.12.72c.158.076.675.515.797.677.124.159.36 1.237.36 1.237s-.436.954-.36 1.074c.078.121.876.836.876.836l2.272-.876s1.232-.955 1.232-1.074c0-.122-1.312-3.308-1.312-3.308l-3.03-2.076-1.31-1.074 1.83-1.79-.16-1.552s.398-1.519.478-1.519c.084 0 1.196-.794 1.196-.794l1.273.881 1.913-1.198 1.076-3.86.039-5.023-1.713-3.066s-.795-1.872-.919-1.872c-.119 0-1.271-1.796-1.271-1.796l-2.669-1.192-1.158-.04-.714 1.193-.754-.915-1.036-1.83.117 1.114s.16.716.112.875c-.03.159-.792-.996-.792-.996s-1.274-.237-1.353-.237c-.077 0-.717-.362-.717-.362s1.879-2.185 1.716-2.107c-.158.078.318-2.788.318-2.788s.676-1.357.715-1.277c.041.081 2.625-.278 2.625-.278s4.741-.077 4.702 0c-.039.083 2.313-.156 2.313-.156s.076.677.282.757c.194.078 2.105-.043 2.105-.043l1.395-.317.674-.082s-.834-.835-.955-.835c-.119 0-.914-.361-.992-.401-.083-.04.596-1.55.555-1.79-.037-.24-.117-1.075.199-.995.318.081 2.474.081 2.474.081s.872.833.872 1.073c0 .238 1.395 1.074 1.395 1.074s.759-.836.836-.994c.067-.127.47-.576.624-.65-.192-.157-.818-.982-.818-.982s.674-.759 1.031-.361c.363.399 1.156 2.111 1.156 2.111s-.719 1.791-.719 1.953c0 .156-.277 1.794-.277 1.915 0 .118-.798.834-.798.834s-.394 0-.394.199c0 .198.552 1.272.552 1.272s.206 1.237.318 1.312c.122.087 4.107 3.547 4.107 3.547l2.587 2.554 1.677 1.391.475-.118s.401-1.95.241-1.875c-.161.083-.799-.594-.716-.711.077-.127.236-.685.433-.644.203.043.799.158.799.158l-1.195-1.512.396-.834.92.278-1.236-1.313-.637-1.277s.677.158.722.276c.035.127.755-.511.515-.554-.241-.044-1.674-.56-1.674-.68 0-.118-.834-.317-.88-.478-.036-.158.161-.795.046-.795-.119 0-1.354-.557-1.354-.557l-.802.115-.438-.871.238-.677s-.763-1.084-.832-1.153c.061.055 1.702-.572 1.858-.639-.008.026.776-.065.845.234.083.321.438.64.438.64l.841-.796s.596-.52.835-.402c.239.119 1.394.363 1.557.519.142.146.867.352.979.483-.011-.167.014-.684.014-.684l.034-.437 1.123-1.512s.433-.636.836-.72c.398-.076 1.232-.793 1.391-.672.16.117 1.481.08 1.64.438.156.357.873-.12.873-.12s-.681-.835-.717-.758c-.037.079-2.233-.879-2.351-.835-.121.036-1.59-.878-1.59-.878s-.761-.279-.797-.279c-.039 0 .593-.319.831-.399.241-.078.8-.835.8-.835s-.277-.517-.439-.677c-.161-.158.877-.039 1.234.12s2.155.238 2.112.358c-.044.118 1.195.118 1.154.438-.041.319.438.396.598.557.16.16 1.673.398 1.755.438.073.039 1.587-.119 1.587.118 0 .24.48-.038.48-.038s-.238-1.154-.517-1.075c-.282.079-.802-.319-.44-.397.36-.079 1.037-.478.839-.558-.202-.078-.519-.478-.997-.679-.476-.199-2.389-.633-2.588-.558-.197.083-3.188-.639-3.381-.639-.204 0-1.239-.275-1.239-.275l-10.197-2.749s-6.333-.676-6.296-.799c.043-.116-3.663-.437-3.663-.437l2.194 1.833-2.194-.317s-2.706-.438-2.786-.558c-.082-.118-7.572-.159-7.572-.159l-1.113-1.2s-3.587-.592-3.706-.632c-.119-.044-4.582 0-4.582 0l-3.737-.558s-2.513-1.078-3.071-.957c-.557.12-6.054-.358-6.374-.519-.316-.16-2.504.16-2.504.16l1.783 1.355-2.942-.082-2.948-.041-1.118-.556.046 1.634s-.839.155-.839-.043c0-.199-2.591-1.113-2.591-1.113s-2.154-1.91-2.19-1.79c-.041.118-3.498-.678-3.498-.678l-2.158-.396s-.637.277-.559.437c.08.159.916.716.797.835-.119.118-1.43-.119-1.43-.119l-3.387-.119-.602-.637-4.461.04s-1.672-1.316-1.714-1.24c-.036.08-1.273.286-1.273.286l-.957 1.033-2.706.2 2.912-1.555 1.035-.755c.075-.204-.724-1.396-.878-1.238-.157.161-2.433-.557-2.552-.557s-3.545-.08-3.545-.08c-.242-.039-1.314 0-1.314 0s-.398-1.113-.598-1.074c-.197.04-2.79-.04-2.79-.04s-2.308.478-2.395.716c-.071.241.444.478.444.478s-1.234.916-1.355.836c-.117-.08-3.706-.08-3.706-.08s-4.978 1.074-4.978.954c0-.102-1.49.534-1.837.687.293.257 1.338.852 1.2.992-.158.158-3.507.318-3.626.078-.107-.219-1.431.286-1.641.318.241.1 1.809 1.326 1.918 1.513.119.198.407.478.797.318.398-.159.756-.318.838-.159.08.159 0 .517 0 .517s-.998.2-1.113.2-1.316-.678-1.436-.717c-.117-.04-1.711-.398-1.912-.398-.204 0-1.079.119-1.079.119s-.676.598-.518.678c.165.079.562.835.683.758.117-.083.836-.401.873-.041.041.354-.834.638-.834.638s-1.2-.482-1.239-.598c-.039-.124-.598-.798-.598-1.157s-.715-1.632-.914-1.434c-.197.2-.914.279-.914.279l.877.796s.754.635.555.677c-.197.04-.756.357-.793.478-.041.119-.479.794.037.794.518 0 1.355.8 1.355.8s.039 1.077.117 1.236c.08.159 1.312.994 1.312.994s.763-.478.875-.596c.126-.12 1.162-.318 1.4-.08.239.238-.48.835-.677.717-.201-.121-.637-.24-.836-.161l-.203.079s-.277.598 0 .717c.281.121.644.519.602.717s-.797 1.554-.797 1.554l-1.118.238c-.398-.079-1.033-.358-1.033-.358l1.194-.914.16-1.237s.041-.079-.277-.358c-.325-.277-1.437-1.272-1.437-1.272s-.676-1.117-.676-1.236c0-.125-.318-.72-.318-.72s-.758-.517-.918-.553c-.156-.041-.156-.481-.035-.719.117-.24-.121-1.313-.162-1.155-.046.16-1.397-.039-1.558-.079-.16-.039-.516-.478-.516-.478s-.197-.674-.521-.397c-.315.278-.872.397-.872.397l-.557 1.472.158.598-1.115.759s.941.809 1.028.871c-.068-.033.05.803.087 1.001.036.199 1.711.638 1.711.638s.877.357.955.715c.082.358-.24.797-.24.797l-1.709-.797-3.788-1.193s-3.66-.238-3.583-.357c.083-.119-1.396-.958-1.396-.958l-.837.437s.795.561.919.596l1.314.482s.36.199.438.518c.083.317-.676.715-.676.715s-.516-.557-.516-.675c0-.12-.123-.598-.281-.519-.16.08-1.633.837-1.633.837s-1.673.039-1.874.198c-.199.159-1.274.918-1.354.717-.082-.199.158-1.035.122-1.194-.042-.159-1.675.28-1.675.28s-2.108.675-2.191.873c-.078.202-1.033.399-1.197.439-.158.04-.355.04-.355.04s-.834.52-.678.795c.16.28-1.155.437-1.155.437s-.834-.516-.873-.632c-.038-.109.905-.743.995-.797-.122.079-.995-1.036-1.116-1.076-.105-.032-2.27.024-2.656.008.252.092 1.023.838 1.023.948 0 .12.121 1.276.121 1.276s.632.401.754.354c.119-.036-.122.68-.122.68l-1.069-.119s-.444-.641-.802-.279-1.551 1.277-1.629 1.158c-.082-.12-.758.119-.718.358.041.24.558.755.558.755s-.755.637-.681.4c.083-.242-2.067-.797-2.228-.757-.165.04-1.079.319-1.079.319l.396.676s1.198.079 1.355.318c.165.238-.274.716-.4.716-.112 0-2.902-1.314-2.902-1.314s-.918-.954-.642-1.232c.286-.279.522-.716 0-.716-.515 0-1.072-.401-1.108-.56-.042-.159 3.141.322 3.141.322l1.837.196s-.238.242.479 0c.714-.239 1.91-.839 2.07-.873.16-.047.355-.802.355-.802l-.238-.676-6.847-1.632s-2.274-.677-2.313-.796-2.032-.321-2.032-.321l-.958.123.802-.998s-3.112-.919-3.188-.8c-.084.119-1.356.724-1.356.724l-2.389-.401-3.07.716-3.108.759-4.498 1.91 1.673.159-.721 1.233-1.992 1.479-1.111 1.829-.16.996-1.074 1.153s-.756-.397-.915-.554c-.158-.163-2.791.752-2.791.752l-1.591 1.515s-.398.759-.478.958c-.083.201.119 2.312.119 2.312s.956 0 .676.278c-.28.277-.24 1.555-.24 1.555l1.117.752s1.472.482 1.677.44c.191-.039.913-.517 1.035-.597.111-.078.993-.954 1.271-.918.278.044.994-.758 1.077-.474.078.279.239 1.274.396 1.513.159.239.716.677.954 1.232.237.559.564 1.119.48 1.233-.083.124-.639.677-.639.677s-1.191.159-1.353.324c-.158.157-.357.236-.477.157-.123-.08.397-.64.517-.793.121-.163-.278-.801-.438-.762-.162.042-.317-.358-.162-.477.162-.12.122-.876.122-.876s-.239-.121-.357-.079c-.12.04-1.514.596-1.514.596s-.756.797-.796.955c-.043.164-.362.998-.158 1.593.198.601.675 1.557.675 1.557s.513.356.318.517c-.196.158-.6.756-.6.756l-.951.039s-1.713.203-1.875.279c-.157.082-1.828.596-1.753.758.084.159-.36 1.874-.36 1.874-.077.04-1.751 1.234-1.949 1.234s-1.433.317-1.433.317-.558 1.474-.596 1.393c-.04-.081-1.877.876-1.877.876s-1.392-.399-1.432-.56c-.04-.158-.519-.516-.557-.396-.042.121.476 1.36.476 1.599 0 .233.081.712-.079.556-.16-.163-.956-.397-1.114-.478-.163-.078-1.515-.042-1.515-.042h-.558s-.679.6-.719.479c-.037-.121-.077.52-.077.52l.396.396 1.438.597 1.353.837.518 1.273.596 1.195s-.399 2.469-.473 2.592c-.088.117-.921.678-.921.678l-2.591-.044s-1.275-.277-1.394-.317c-.119-.042-1.913.238-1.948.079-.04-.161-.6-.121-.6-.121l-.282-.317h-.716l-.597.675-.876.044v.713s.358 1.637.318 1.518c-.04-.123-.158 1.909-.158 1.909s-.861 1.731-.948 1.863c.019.052-.047 1.165-.047 1.165l.519.838.079.993s-.399.915-.239.836c.161-.081 1.437.039 1.472-.119.04-.158.799-.517.915-.24.118.278.56 0 .684.482.111.477.553 1.153.596 1.271.039.124.357.239.357.239l.119.322-.242.2-.99 2.227-2.196 1.555-1.312.834-.359.999-.556.637-.16 1.234s.16 1.551.077 1.633c-.077.079-2.986 2.828-2.986 2.828l-1.593.358-.88 1.515s-1.194 1.112-1.271 1.316c-.083.196-.679.956-.679.956s.04 1.59 0 1.353c-.041-.239-1.711 1.312-1.711 1.312s-.318 1.833-.397 1.915c-.079.076-.875 1.472-.998 1.432-.119-.041-.238.955-.238 1.115 0 .158.396.635.396.635s.562 1.08.6.96c.038-.123.038.36.038.36l-.555.554s.598.919.598 1.038v2.466l-.64 1.357-.318 1.754-.959.755.04.479.838.675.123.755-.243.839v.84l.601 1.394s.597.477.716.357 1.31.756 1.472 1.033c.16.279 1.631 2.032 1.631 2.114 0 .078.24.477.24.477l.716 2.43s3.466 2.866 3.546 2.748c.08-.116 3.705 2.587 3.705 2.587s2.912-1.43 2.873-1.309c-.043.117 2.465-.121 2.465-.121l1.516.238 1.111.518 4.067-1.869.797-.604 3.144-.115 1.516.591s.995 1.479.995 1.718.598 1.312.679 1.152c.077-.155 3.545-.315 3.667-.277.115.039 1.63 1.517 1.63 1.517l-.079 1.396-.241 2.466-.479 1.196-.473 1.077-.119.757s3.579 5.258 3.579 5.297.917 2.188.917 2.188l1.08 2.752.638 1.55-.638.876 1.036 2.674-.36 2.625-1.554 3.389-.676 2.508.199 3.346 1.866 3.864 1.955 4.422.199 4.862 1.557 2.904 1.118 2.348 1.074 2.553.555.757s.083 1.275-.043 1.275c-.117 0-.712.043-.552.277.158.238 1.072 1.833 1.072 1.833l.039.719 1.273.713 1.123-.516s1.113-.197 1.234-.158c.117.039 1.668-.52 1.668-.52l2.391.359 1.674-.875 1.833-.119s3.146-3.069 3.146-2.989 2.902-3.742 2.902-3.742l1.481-1.278.833-2.508-.118-1.629s.28-.843.556-1.001c.282-.158 2.987-1.751 2.987-1.751l.563-2.631-.522-2.591s-.4-.991-.4-1.152c0-.157.279-.879.279-.879l2.632-2.349s.596-.757.875-1.035c.28-.278 2.745-1.352 2.745-1.352l1.677-1.63.279-6.018s-.598-2.236-.637-2.431c-.039-.204-1.194-3.983-1.194-4.145 0-.157-.398-2.47-.443-2.672-.032-.192.914-2.863.914-2.863l1.319-2.593 5.38-6.173 3.03-2.426 4.579-7.493 1.475-3.467.315-3.501-.953-.16s-.48.557-.599.635c-.12.082-2.868.242-2.868.242l-3.347.992-1.633.598-1.593-1.67.238-1.194-2.148-2.553-3.029-3.022s-1.519-1.158-1.437-1.274c.082-.123-.839-2.911-.839-2.831s-1.512-1.392-1.512-1.392l-.039-2.672-1.633-2.665-1.789-3.27s-1.517-3.746-1.677-3.945c-.156-.198-.754-1.192-.557-1.153.199.041 1.633-.159 1.633-.159s2.667 3.149 2.667 3.308 1.597 2.825 1.597 2.825 1.193 1.675 1.193 1.552c0-.113.279 1.554.238 1.677-.039.12.717 1.953.717 1.953l2.272 2.033.477 1.471 2.071 2.27.401 1.436-1.397-1.279s-.438.719-.279.842c.158.116 1.553 1.591 1.553 1.591l.683 2.029.518 1.915.754.637 2.233-.437.395-.88h2.192l.955-.715 1.191-.16s.918-.917.997-.957c.082-.04 3.627-1.59 3.627-1.59s.077-1.16.238-1.16 3.708-1.115 3.708-1.115l.357-1.353 1.271-.08.359-.914 1.235-.756.155-1.993.919.276.281-.678-.318-.433 1.395-2.031.039-.721-1.355-1.234-.635-.676s-2.153-.242-2.235-.401a250 250 0 0 1-.914-2.073c0-.594.039-1.673-.082-1.591-.115.079-.793.835-.793.835l-2.465 2.272-2.156.557s-.714-.199-.756-.317c-.039-.12-.119-1.954-.119-1.954s-.92-1.075-.956-1.233c-.039-.16-.719 1.396-.719 1.396s-1.036-1.396-.919-1.44c.119-.037-.477-1.392-.477-1.392l-2.068-2.387-.119-1.237s.996-1.078 1.154-1.118c.158-.039 1.592-.237 1.753.283.16.513 1.355 2.272 1.355 2.51s1.829 1.83 2.031 1.79c.196-.039.911.358 1.154.518.238.159.713.438.914.64.199.195.717.079.717.079l1.315-.201s1.074-1.036 1.117-.836c.035.203 1.271.282 1.113.557-.16.28.044 1.079.158 1.317.124.241 5.497 1.077 5.497 1.077l2.474.318s2.623-.241 2.783-.241c.158 0 1.837.163 1.995.117.156-.035 2.547 2.591 2.547 2.591l2.231 1.12.515-.042-1.268.559s.432.996.432 1.114c0 .12 2.233 1.714 2.233 1.714s.795-.521.914-.521c.122 0 .679-.198.72-.477.039-.278-.122-1.073.078-1.153.203-.08.476-.321.523.04.035.356.521 3.782.438 3.819-.087.047.676 2.592.676 2.711 0 .12.996 3.229 1.033 3.348.041.118 1.672 3.623 1.791 3.743.117.12 1.714 4.26 1.714 4.26s.918 1.714.877 1.995c-.039.279.32 1.632.56 1.792.238.159 1.311.558 1.311.558s.596-.521.64-.677c.036-.158.477-.875.632-1.113.161-.243.885-.318.921-.161.037.161.878.558.878.558l-.087 1.95s.164 1.271.281 1.757c.126.477 1.118.875 1.118.875l1.195-1.075.516-1.837-1.191-1.789s-.914-.995-1.035-1.118c-.121-.115-.884-.234-.884-.234s.087.399.164.555c.083.16-.164.202-.164.202l-.914-.357.16-1.045s.685-.117.802-.117-.048-1.592-.048-1.592.247-2.825.327-2.905c.08-.083-.121-2.868-.44-2.986-.315-.12 0-1.035.161-1.076.158-.042 1.711-.597 1.711-.597l.873-1.713s1.558-1.078 1.677-1.158c.117-.08 1.908-1.988 1.908-2.231 0-.235.204-.833.679-.918.479-.075 1.358-.713 1.358-.713v-1.316s.158-.637.516-.795c.355-.16 1.273-.281 1.273-.281s.202.519.08.597c-.121.082 2.03-.597 2.03-.597s.955 0 1.115-.038c.163-.042.64-.755.64-.755s-.204-.641.073-.483c.284.165.962.88.884 1-.085.114.395.913.279 1.231-.123.318 1.831 2.474 1.831 2.474s.952-.441.875-.122c-.083.318-.277 1.317-.277 1.317s.598.396.834.437c.24.039.917 1.353.917 1.353s-.16 1.192-.16 1.352.086 1.317.039 1.517c-.039.198 1.633.562 1.633.562s1.35-1.084 1.43-1.206zm-118.1-59.191 1.317-1.116.281-1.077s1.232.201 1.269.36c.039.157.323-.36.636-.079.322.278.721.235.762.476.035.24.277.519.316.359s.039-.677.039-.677-.355-.198-.557-.322c-.201-.118-.159-.477.041-.592.196-.119.754-.444.915-.322.16.116.878-.159.878-.159s.119-.243.197-.357c.083-.124.481-1.197.481-1.197s-.284-.119-.362-.479c-.08-.356.44-1.393.562-1.431.114-.041 1.674-.959 1.674-.959s.596-.639.357-.835c-.241-.202-2.032-1.077-2.032-1.276s-.199-1.235-.083-1.631c.121-.397.84-1.157.958-1.317.121-.155.997-1.232 1.157-1.196.16.043.756-.08.912-.156.163-.083 1.553-.719 1.315-.758s.081-.756-.041-.717c-.119.039.122-.915.401-.994.277-.079.754-.438.879-.438.112 0 1.075.04 1.313.079.238.04 1.074-.357 1.193 0 .119.358.435.438.16.557-.279.12-.916.678-1.315 1.034-.396.357-1.594 1.159-1.754 1.195-.156.042-.243.119-.559.321-.318.195-.318-.278-.394.476-.083.758-.199 1.593-.043 1.875.16.278.277.716.119.916s-.041.319 0 .677.527.516.561.676c.037.159.674.477.674.477.318-.036.685-.077.758.083.083.159.243.08.243.08l.671-.163s.681-.398.921-.358c.238.04.555-.079.834 0 .279.08 1.472-.318 1.636-.279.158.044 1.27-.437 1.353-.277.08.159.678.119.678.119l.479.358c0 .238-.479.795-.596.878-.121.078-.518.401-.757.318-.238-.077-.402.04-.72-.077-.319-.122-.917-.284-1.078-.284-.159 0-2.027.444-2.027.444l-.953.276-.165.56.121.119.956.596c0 .201.401.08.318.558-.078.477-.119.676-.238.914-.122.24-.598.678-.717.398-.119-.278-.714-.796-.875-.915-.156-.119-.634-.04-.92-.04-.277 0-.836.399-.836.837s-.277 1-.16 1.431c.121.444.641 1.002.403 1.279-.243.28-.797.479-1.035.597-.238.12-.8.518-.997.597-.199.079-.797.318-.918.04-.117-.28-.357-.717-.357-.717s-.199-.396-.282-.277c-.071.115-.516.16-.516.16l-1.031.397s-.562.397-.679.477c-.123.079-.719.079-.958.198-.238.121-.956.718-1.153.439-.202-.277-.317.199-.563-.239-.233-.437-.157-.916-.438-.834-.275.08-.917.238-.992.397-.083.159-.162.159-.316.318-.16.158-1.317.278-1.317.278v-.079zm33 29.496c-.298.778-.298 1.792-.719 2.57-.42.773-.599 1.191-.896 1.675-.3.472-.3 1.132-.776 1.43-.477.301-1.193.718-1.612.42-.415-.3-2.09-.239-2.274-.179-.177.06-2.206-.06-2.447.355-.238.42-1.786.122-2.033 0-.238-.118-3.164-1.315-3.402-1.372-.238-.059-1.738-.715-1.979-.894-.238-.181-1.729-.363-1.787-.541-.061-.18.119-.418-.124-.358-.234.055-1.97.597-2.208.772-.243.186-.773.663-.773.663s-.723.716-.663 1.253c.064.538.719.956.481 1.254s-1.074.656-1.074.656-.902-.835-1.196-.954c-.299-.12-3.104-.537-3.104-.537l-1.136-1.314s-1.792-1.196-1.972-1.256c-.181-.059-2.152 0-2.454-.238-.3-.243-1.255-1.495-1.731-1.434-.479.059-.298-.717-.119-.836.178-.119.716-1.135.657-1.314-.062-.181.298-1.193-.298-1.491-.597-.306-.181-1.321-.181-1.321s.599-.119.36-.119-1.135.06-1.376-.238c-.235-.299-.302-.417-.534-.299-.244.121-1.738.359-1.915.299-.181-.059-1.612.119-1.851.119s.06.061-.238 0c-.303-.06-1.499.481-1.557.716-.055.239-1.251-.055-1.432 0-.182.06-1.913.06-1.913.06l-2.87.478s-1.911.962-1.97 1.26c-.06.299-.658.777-.836.893-.177.121-1.252 0-1.318-.178-.056-.179-1.971.062-1.971.062s-.775-.421-1.014-.24c-.238.179-.238-.779-.238-.779l.298-.711 1.074-.719 2.573-.482 1.255-.833.773-.299.476-1.253s.897-.179.837-.361c-.059-.179-.294-1.016-.294-1.016l1.729-2.687 2.449-1.196.419-.837s-.235-1.074-.059-1.256c.178-.18 1.792-.539 1.792-.539l2.033.658s1.074-.715 1.312-.835c.238-.121 1.376-.776 1.376-.776s.116-.537.356-.478c.239.059 1.255-.179 1.377.299.119.478 1.015 1.973 1.015 1.973l1.373 1.435 1.317 1.016 1.614.595s.954.837 1.132.897c.179.058 1.074 1.077 1.074 1.077l.477.833s-.297.66-.536.96c-.238.295-.955 1.075-1.135 1.011-.18-.055-1.557-.294-1.557-.294l-1.492.178s-.235.359.182.657c.418.298.895.24 1.311.478.425.238 1.499.719 1.499.719s.719.116.719.294c0 .18.236-.478.176-.895-.059-.417-.121-.953.298-1.074.421-.119 1.075 0 1.075-.181 0-.178.183-.42.183-.42l.537-.652-.06-.417.541-.425s-.298-.351-.541-.654c-.236-.3-.477-.479-.304-.778.183-.297.778-.717 1.083-.477.297.238 1.191.357 1.131.658-.057.296 0 .713.122.478.115-.241.06-1.197.06-1.197s-.479-.655-.898-.715c-.414-.062-1.498-.598-1.794-.717-.297-.12-.833-.417-.833-.417s.236-.657-.117-.597c-.362.059-1.436-.123-1.436-.299 0-.183-1.077-1.021-1.132-1.196-.06-.183-1.019-1.496-1.019-1.496s-.541-.537-.598-.716c-.062-.18-.119-.479-.239-.955-.123-.478 1.193-1.673 1.134-1.495-.061.176.3.418.542.955.235.54 1.192 1.435 1.312 1.793.118.357 1.436 1.376 1.73 1.492.304.118.477.48 1.077.718.6.24.542.355 1.317.716.773.359.895.482 1.01.657.124.182.598.123.781.421.178.297.417.358.417.656 0 .297.243.297.117.895-.117.597-.295.776-.234.895.06.122 1.136 2.334 1.555 2.334.417 0 1.67.478 1.491 1.192-.178.716.775 1.673.775 1.673s.799.051 1.351.143c.023-.417-.065-1.086.388-1.339.532-.299 1.31-.6 1.189-.895-.122-.298-.241-.838-.717-1.194-.472-.357-.956-.543-1.075-1.134-.117-.599-.299-1.379.238-1.138.537.237 1.016 1.378 1.26.596.235-.775.831-1.314 1.248-1.134.423.179 1.2.477 1.14.716s.537 2.154.537 2.154.238.181.357 1.075.895 1.134.778 1.433c-.121.296-.481.475.479.597.951.12 1.852.297 1.852.536s.776.364.896.54c.117.18.834.537.955.18.119-.355.359-1.078.538-.958.179.124 1.672.124 1.793.604.124.471 1.137.471 1.137.598 0 .115.896-.299.896-.299s1.253-.958 1.612-.779c.357.179 1.37-.661 1.251.116-.14.777.64 1.496.34 2.271zm5.97-10.516c-.176.181-1.315 1.314-1.315 1.314l-2.271-.3h-1.552l-1.314-.476s-.898-.298-1.076-.479c-.182-.179-1.313-.599-1.313-.599l-2.392.539-1.854.539-.653.595-2.212-.536-1.313-.656-.721-.779h.658l-.234-.955.115-.656.595-.361.421-1.731.719-.299.177-.894s.599-.541.78-.72c.179-.177.776-1.017.776-1.017l1.43.599s1.494.181 1.256.242c-.243.058-.958.897-.958.897s.538.294.785.477c.233.179.774.475.653.836-.121.357.896.298.896.298l.359-.597 1.67-.417.598-.302-.957-.294s-.836-.302-.715-.482c.121-.181.896-1.375.896-1.375s1.973-.595 2.15-.595c.175 0 1.378-.239 1.378-.239s-.956.955-1.079 1.136c-.124.181.062.774-.238 1.016-.296.238-.72.48-.896.541-.183.055-.063.655.117.716.184.061.779.298.779.298l2.63 1.372 1.612 1.612 1.259 1.021c-.04-.004.49.533.31.711zm15.18 7.884-1.5.179s-1.312-.538-1.368-.775c-.065-.238-.362-.776-.542-.657-.178.121-.775.18-.953.121-.178-.061-.841-.598-.841-.837 0-.237-.182-.774.119-1.016.302-.238.899-.654.778-.838-.115-.177-.181-.948-.181-1.074 0-.12 0-.237.362-.298l.357-.061s.119-.356-.061-.536c-.178-.18-1.257-.957-1.376-1.135-.112-.178-1.434-1.432-1.612-1.617-.177-.175-.955-.712-.955-.712l-.418-.899.357-1.134-1.072-.239-.238-.774v-.181l1.131-1.312s.78-.417.957-.303c.179.124.595-.357.664-.536.053-.183 1.187-.959 1.43-1.078.237-.118.654-.656.896-.357.236.297 1.729.778 1.729.778s.542.118.477.354c-.058.243-.537 1.797-.537 1.797s-1.072-.299-1.191-.239c-.116.057-.953.359-.775.836.178.478-.656.179-.598.418.057.237.178.596.359.716.18.119 1.191.656 1.312 1.015.117.361 1.789 1.436 1.789 1.436s.181.118.121.361c-.056.238-.179 1.492 0 1.492s.595-.061.595-.061.543-1.133.723-1.013c.178.118.896.655 1.075 1.073.175.418.537.834.357.954-.183.118-1.017.06-1.255.06-.235 0-.658-.299-.777-.18-.123.12-.357.418-.18.775.18.362.541.898.722 1.021.176.117.353.054.895.538.537.478.715.714.537 1.253a1.9 1.9 0 0 0 0 1.193c.059.179.178.597.3.776.116.18.116.417.116.417l-1.76.299zm-21.56-47.771c-.021-.008-.044-.008-.052-.008-.02.008.01.008.05.008zm145.18 12.382c.005-.009-.004-.025-.014-.037 0 .041 0 .061.01.037zm-107.74-20.16s.025-.006.073-.029c-.041-.037-.069-.065-.073-.083-.04-.163 0 .112 0 .112m-16.93 133.44s-1.278 1.438-1.354 1.68c-.084.235-1.115 1.51-1.28 1.907-.16.398-1.43 1.273-1.43 1.273l-2.311.957s-.795.08-.558.403c0 0-.16.633-.714 1.352-.56.715 0 1.67 0 1.67l.315 1.593v1.516s-.479 1.673-.717 1.751c-.236.082-.635.559-.873 1.357-.242.795-.16 1.353-.16 1.353s.16 1.195-.082 1.436c-.243.238.398 1.431.641 1.834.238.395.876.633.876.633s.554.48.795.637c.238.16 1.432-.312 1.432-.312s.879-.398 1.115-.561c.24-.163.401-.238.875-1.035.481-.797.163-.559.238-.797.085-.238.557-1.277.8-2.63.238-1.355.32-1.275.637-2.469.316-1.196.715-1.517.795-2.468.08-.957.158-1.358.236-1.679.082-.316.882-1.51.958-2.309.078-.793.078-1.194-.076-1.51-.158-.323.956-.085 1.112-.562.163-.479 0 0 .082-.235.081-.243.163-1.754.163-2.629 0-.876-.877-2.236-.965-2.47-.08-.24-.55.32-.55.32zm79.58-11.55c.243-.637 0-.717-.157-1.035-.158-.318.315-1.75.955-2.31.637-.559-.318-.641-.318-.641l-.956.16-.877-1.673s-1.514-1.191-1.99-1.512c-.479-.316.712-.957.712-.957s-2.702-2.549-3.022-2.549c-.318 0-1.915-1.273-2.153-1.356-.238-.077-1.512-2.23-1.512-2.23l-5.42-2.707s-.715.64-.715.955c0 .319.957.478.957.478s.316.238.635.399c.318.16 1.273.955 1.354 1.516.077.555.24.875.797 1.35.561.479 1.512.722 1.512.722s.403 1.352.722 1.512c.316.16.557.874.712 1.275.161.398 1.677 2.867 1.591 3.743-.076.877 1.122 2.95 1.122 2.95s2.709 2.148 2.789 2.469c.078.316 2.063.876 2.063.876s.98-.82 1.22-1.45zm18.48-16.33c0-.318-.877-1.033-1.118-1.354-.238-.321-1.67-1.595-1.988-1.833-.316-.238 0 0-.477.88-.477.875-1.037 1.91-1.278 1.988-.24.08-1.988 1.194-2.469 1.751-.477.557-1.43 1.993-1.748 1.76-.318-.243-1.679 1.028-1.679 1.028l-.715 1.753-2.232-.475.158.719s-.713 1.11-.553 1.354c.16.239 0 1.117.238 1.59.236.482.477.799.875 1.117s.477 1.354.238 2.151.321.955.637 1.278c.318.316 1.034.398 1.354.155.318-.24.957-.315 1.36-.077.39.238 1.432.238 1.748.637.318.398 1.594.158 1.83.398.243.238 1.517-.24 1.833-.563.315-.312 0-.948 0-1.988 0-1.035.16-.955.721-1.354.557-.398.955-.717 1.033-1.271.083-.561.241-1.516.241-1.995s1.275-.397 1.511-.558c.246-.16-.16-.477-.16-.715 0-.242-1.035-1.355-1.271-1.754-.238-.401.396-2.392.792-2.71.42-.33 1.13-1.6 1.13-1.92zm-11.15 21.43c.237.08.794.08 1.985.398 1.202.318 2.317.4 2.474.717.16.316 1.191 0 1.675-.078.477-.082 1.596-1.118 2.311-.32.718.797 2.149.238 2.389.398.238.155.961-.398 1.832-.316.878.076.958.316 1.196.316s1.035.24 1.434.155c.399-.077.875-.554 1.593-.472.721.076 2.627-.562 2.627-.562s0 .081-.472.399c-.481.318-2.075 1.511-2.075 1.511s-.24-.157-.321.323c-.077.477-.554 1.435-.077 1.032.48-.393 2.153-1.829 2.552-2.147.394-.318.554-.48.953-.719.398-.238 1.273-.479 1.273-.479l.561-.398s-.48-.316-.721-.238c-.234.083-.637-.316-1.191-.078-.56.238-2.071.477-2.071.477s-.957.161-1.514-.077-1.198-.638-1.435-.321c-.238.321-1.592.717-1.835.717-.235 0-1.113-.08-1.75-.237-.638-.158-.798-.158-1.116-.158s-.318-.238-1.194-.321c-.879-.078-1.122-.316-1.352-.238-.247.083-.637.16-.955.321-.322.155-1.282.155-1.514-.083-.243-.238-2.635-.715-2.635-.715s-.316-.398.403-.637c.715-.238.559-.238.475-.555-.078-.324-1.276-.324-1.59-.238-.318.074-1.12.238-1.438-.086-.316-.312-1.273-1.118-1.589-.638-.321.479-.16 1.118-.481 1.04-.316-.078-2.472.158-2.472-.078 0-.238-.557-.879-.797-.962-.238-.077-.158-.315-.555-.48-.4-.151-1.195.082-1.195.082l-.795.083-.958 1.113s2.231.242 2.47.559c.238.32 1.434 1.273 1.434 1.273s1.59.398 1.991.477c.42.12 2.25.19 2.49.28zm-2.62-44.695c-.247-.158-.879-.158-.879-.158l-.798.317-.398-.159-.879 1.197s.24 1.352.479 1.352h1.115l.88-.636.48-1.193s.23-.56 0-.72m12.9-3.186.479-.958s.24-.956.317-1.194c.081-.243.396-.958.163-1.356-.24-.398-.082-.954-.24-1.273-.161-.316-.24-.796-.24-.796l-.797.317c-.318.318-.795 1.752-.795 1.752s-.319 1.439-.081 1.75l.876 1.198.32.56zm10.03 23.981c.717.241.957.085.875-.242-.078-.318-.318-1.988-.477-2.623-.16-.637.955-1.118-.238-2.071-1.193-.96-1.113-.875-1.193-.96-.081-.08-.081-.875-.081-.875s.238-.795.081-1.033c-.158-.238-.319-.717-.479-.955-.16-.24-.16-.318-.639-.318-.477 0-.477-.559-.795-.482-.316.08-1.115.716-.559-.234.559-.962.242-1.12.242-1.28 0-.158-.403-.396-.799-.475-.396-.082-.718-.559-1.274-.4-.557.164-.795-.236-1.115-.236-.318 0-.477-.401-.555-.875-.082-.479.078-1.436.078-1.673 0-.242.477-.958.477-.958s.16-.322 0-.877c-.158-.556-.477-1.513-.477-1.91 0-.398-.88-.797-.88-.797l-1.037.398-.396 3.506s-.716.236-.634.554c.075.321.075 1.835.476 2.153.396.315 1.037.715 1.037.715.156.4-.236 1.193-.236 1.193s.951 1.12 1.036 1.44c.076.316.557.155.557.155s-.238-2.15.236-1.754c.479.4 1.752.325 1.83.799.083.479.958.955 1.113 1.436.16.478 1.198.638 1.122 1.032-.082.4-.721.4-1.122.479-.394.08-1.67-.873-1.67-.873s-.318-.08-.396.395c-.078.479.158 1.672.477 2.07.316.401.637 0 .798.238.16.243 0 .8.24 1.12.235.318.873.396 1.115.236.238-.156 1.035-.557 1.035-.557s-.084-.955-.4-1.118c-.318-.158-.797-.637-.555-.872.236-.241.713-.718.955-.64.234.08.798 1.116.715 1.354-.077.238 0 .321.321 1.194.315.882.477.721.077.882-.398.155-.795.637-1.037.795-.053.037-.061.06-.053.075-.058-.019-.211-.047-.582-.075-1.04-.08-.799-.557-1.04-.08-.235.477-.477.875-.477.875l-.554.238s-.401 1.273-.321 1.67l.078.405s.797-1.517 1.038-1.517c.235 0 .235.398.557.158.322-.238.641-.076.641-.076s.477-.242.395.393c-.073.637-.073.717.158 1.362.245.633.882.953 1.12 1.191s.554.398.715.557c.16.158.238-.717.16-1.354-.12-.66-.44-1.15.27-.9zm-5.57 9.64c.882.479 1.432.72 2.149.958.721.238 1.432-.479 1.594-.317.158.157.878-.56.878-.56s.554-.797.477-1.033c-.08-.244-.161-.959-.321-.719-.155.236-1.672 1.115-1.988 1.192-.316.08-1.115-.237-1.832-.237s-2.47-.559-2.713-.32c-.231.242-.953 1.194-.875 1.596.082.398 0 .637 0 .879 0 .238-.238 1.352-.238 1.035l-1.114 2.942s.874 2.235.798 2.634c-.084.396-.242 2.63 0 2.387s1.43-.398 1.43-.398.403-1.434.325-2.07c-.082-.637-.802-2.63-.165-2.47.642.16 1.278.955 1.278.955s-.48.483-.32.8.717.715.639 1.432c-.08.717.238 1.037.238.795 0-.238.798.16.878.32.068.143.822-.524.939-.518.009-.238.128-1.215-.066-1.473-.241-.318-.241-.795-.793-1.432-.562-.644.158-.798-.401-1.521-.557-.712-.795-.474-.557-.712.236-.241.718-.399 1.116-.638.394-.24.715-.875.715-.875.08-.238.242-.158-.396-.318-.637-.16-1.198-.322-1.595.16-.396.475-.795.555-.795.555l-.318.08c-.318.08-.24-.477-.479-.557-.243-.078-.243-.158-.398-.715-.161-.559 0-1.436.242-1.599.23-.15.78-.71 1.66-.23zm2.07 9.32c.009-.027 0-.037-.014-.039-.01.05 0 .08.01.04zm31.23 0c-.076-.479-.16-1.035-.392-1.432-.245-.398-5.425-3.111-6.062-3.349s-3.975-1.274-3.975-1.274-1.599.637-1.599.878c0 .238-.798 1.115-1.118 1.436-.315.316-.237.635-.714.557-.48-.08-.555 0-.802-.24-.231-.238-.474-1.04-.792-1.275-.321-.238-.956-.557-.802-1.194.164-.637.398-1.512-.078-1.512s-1.191.321-1.352.076c-.16-.234-1.113-.154-1.113-.154l-1.989.557-.247.08s.88 1.671 1.441 1.51c.557-.157 1.59 1.116 1.59 1.116s-.316.719-.158.957.797 1.435.797 1.435l1.273-.08 1.274.557 3.428 1.115.96 1.111.557 2.396s-1.438.953-1.356 1.352c.078.399 1.833-.077 1.833-.077l1.432.715 1.748.875 1.997.077 1.191-1.352s1.75-1.512 1.75-1.193 1.597.955 1.837 1.673c.243.717 1.674 1.995 1.674 1.995s1.988.637 2.229.717c.236.074.798.158 1.358.316.557.159-.561-1.437-.561-1.437s-1.755-1.035-1.833-1.434-1.512-1.59-1.432-1.989c.078-.398-.642-.875-.319-.875.319 0 1.591-.158 1.433-.402-.158-.234-1.035-1.751-1.433-1.751-.41-.07-1.61-.07-1.69-.54zm2.71 26.92s-.875-.395-.955-.236-.401-1.514-.401-1.514l.16-.875s-2.393-3.031-2.466-2.788c-.087.238-.88-2.47-.88-2.47l-.237-2.947-.558-1.754-1.432.16-.32-2.87-.802-2.708-.394-.158-.798 1.83s-.398 2.552-.559 3.428c-.16.875-.238 2.152-.715 2.949-.479.797-1.595 2.705-1.595 2.705s-1.275 0-1.436-.238c-.158-.238-1.59-.957-1.59-.957l-.88-1.353-1.429-1.113s-.964-1.198-1.04-1.118.722-1.113.953-1.274c.247-.158.321-.953.321-.953l1.275-1.039s.239-.399 0-.635c-.24-.241-.24-.64-.557-.722-.32-.078-2.153.802-2.153.802l-1.512-.72s-1.118-.559-1.352-.957c-.24-.396-.88-.635-1.038-.477-.16.16 0 .955 0 .955s.327.702.442.921c-.146-.124-.681.277-.681.277l-1.514.155-.958.876-.717 1.357-.476.956s.396.637.238.556c-.16-.079-2.312.559-2.312.559s-.561-1.194-.799-1.433c-.238-.241-.953-.638-1.273-.638-.316 0-1.114.718-1.114.718l-.315 1.671-1.198-.318-1.038 1.752-1.026.401-.565 1.193-.316-1.271-1.195 1.113-.401 1.828s-1.514 1.437-1.674 1.755c-.158.316-3.509 1.517-3.509 1.517l-2.145.715s-1.115.238-1.355.238c-.238 0-2.313 1.516-2.313 1.516l-.711.715-.24-.637-.877.955v1.993l-.877 1.192.479 1.831-.717.242-.637.481.718 1.434.238 2.623s.397.8.319 1.28c-.079.473-.4.953-.4 1.271s.24 1.512.24 1.83c0 .32-.72 2.396-.72 2.396l-.872 1.432-.715.08s.154 1.515.395 1.515c.238 0 .958.315 1.592.559.64.233 1.674-.16 1.914-.243.238-.08 1.993-1.035 1.993-1.035s1.035-.715 1.352-.637c.318.08 1.757-.158 1.991 0 .24.16 2.072.08 2.072.08l1.113-1.193 3.03-1.356 1.516-.16 3.659-1.034 3.108.317s2.632 1.915 2.632 1.755c0-.158.557 1.037.557 1.037l-.158 1.51s.874.717.952.479c.082-.24.96-1.195 1.2-1.434.233-.238.957-.555 1.515-.953.554-.4.712-.639.712-.639s-.555 1.592-.797 1.592c-.238 0-.72.477-.958.797-.238.316-.632.56-.632.72 0 .155.477.155.71 0 .243-.16.642-.642.965-.802.315-.158.479-.078.394.32-.078.398-.078.793-.394.953-.323.16-.722.398-1.281.72-.552.32-.952.077-1.193.32-.24.24.158.481.318.637.16.16.562.64.875.082.316-.559.724-.962.958-1.117.238-.156.717-.642.717-.243s.243.802.318 1.123c.083.315-.555.952-.479 1.11.082.16.882 1.913.882 1.913s.477.633 1.031.633c.559 0 1.75.402 1.992.485.234.075 1.356 0 1.517-.321.16-.32 1.113-.957 1.035-.719-.082.24.078.719.316.957s.637.88.637.88l2.949-2.315s2.229-.479 2.308-.238c.082.238 1.512-1.59 1.512-1.59l4.54-5.576 1.76-1.198 1.272-1.833 1.75-3.191.957-3.576.718-2.71-1.753-2.633-.71-2.24zm-17.69 29.72s-1.113-.717-1.277-.955v-.24l-.793 2.467-.715 2.633s1.43.16 1.59.238 2.552-1.353 2.634-1.673c.078-.32 1.672-2.948 1.672-2.948s-2.55.55-3.11.47zm43.18-4.62-.798-.802s.083-1.113-.16-1.113c-.235 0-.637.08-.637.08l.401-2.792-1.441-.873-.314 4.302-1.038 2.395-2.066.797s.875.873 1.193.873c.316 0-.24.956-.24.956l-1.354 1.196s-.475-.241-.475-.878c0-.639-1.278.637-1.278.637l-.875-.559-2.392 2.068-3.265 1.677-7.646 4.703 1.033.557s.956.398 1.036.559c.077.156 2.389-1.037 2.389-1.037l2.631-1.915 1.27-1.113s2.315-.637 2.233-.318c-.076.318.717-1.513.717-1.513l2.231-1.195 1.356-1.352 1.113.313 1.594-.557 2.709-1.751.477-1.437.88.085 1.668-1.198 1.115-1.912-2.04 1.1zM103.174 9.362c.637.234 1.034.317 2.391.397 1.355.076 1.515-.08 2.151.157.632.236 1.192.643 1.433.077.238-.554.557-.554.795-.874.238-.318 0-.637.397-.796.398-.158 1.117.639 1.117.639s-.878.558-.48.634c.397.083 1.513.32 2.074.397.558.083.08.239 1.036.327.954.075 1.353-.088 2.546-.088 1.196 0 1.917-.553 2.314-.397.397.158 1.75.158 2.147.081.398-.081 1.359-.954.958-.954s-1.913-.401-2.549-.479c-.636-.079-2.633-.159-3.105.079-.482.24-1.039.401-1.357.24-.318-.159 1.357-1.432 2.47-1.274 1.117.159 2.788-.158 3.345-.079s1.916.318 1.916.318.315-.159.394-.397l.161-.478.798.716s5.255-2.149 5.497-2.55c.239-.402 3.58-1.435 4.065-1.352.477.076 3.74-1.356 4.302-1.118.55.239 3.501-.713 3.501-.713s2.154-.48 2.632-.48.716-.556 0-.477c-.719.079-6.696.079-8.126 0-1.438-.079-4.941-.003-5.498.079-.558.08-3.748.956-5.1.878-1.356-.081-5.735.554-5.973.475-.242-.08-1.99-.159-1.83-.159.155 0-2.315 1.992-2.713 1.432-.397-.557 0-.955-.397-.557-.41.398-.33 2.232-.33 2.232.477.32 1.513 1.434 2.232.957.713-.479 1.113-.239 1.352-.162.236.081-1.113 1.117-1.913 1.117-.796 0-3.347.956-3.347.956s-1.116-1.036-1.355-1.115c-.238-.08-1.59-.159-1.829-.159s-.558-.238-.637.478.079 1.83-.716 1.671c-.798-.16-1.035.158-1.435-.078-.398-.24.56-1.435-.561-1.514-1.115-.079-1.751-.875-2.388.397-.63 1.273-1.02 1.273-.38 1.516zm-28.841 4.935c-.242.402 2.067.56 2.225.243.167-.322 1.598-.083 1.915-.558.318-.479 1.909-1.436 2.148-1.277.239.161-.477.956-.716 1.037-.239.079.801.157-.239.958-1.033.795-.794 1.514-.794 1.514s-.876.397-.239.557 1.831.716 1.831.716.079.557.079.717.401.637 1.273.08c.882-.558 2.632-1.193 2.871-.955s.798-.08 1.597-.16c.793-.078 1.433-.318 1.433-.318l1.034.16c.479.238.879-.318 1.679.158.792.478 1.905.478 1.905.478s1.118-.875 1.355-.954c.24-.08.717-.159.478-.717-.238-.559-1.114-1.434-.875-1.598.238-.158.795-.318.716-1.83s.159-1.271-.239-1.193c-.397.08-1.355.558-1.355.558l-.316-.08c-.158.477-.877.796-1.041 1.274-.158.477-.628.716-.628.318s-.56-.479-.645-.797c-.074-.319-.795-.238-1.192-.159-.399.079-1.516-.717-1.915-.398-.394.319-.797-.158-1.115-.875-.315-.716-.716-1.277-1.194-1.2-.478.083-3.425 0-3.425 0l-1.753.159s-.954.243-.954.723c0 .478-.16.797-.637.955-.481.159-3.985 1.433-3.985 1.433s.957.632.718 1.031m25.014-1.909-.876-.16s-.079-.637-.317-.637c-.247 0-.958.876-.958.876s1.038.398 1.197.717.556.715.556.957c0 .235 2.628-.798 2.628-.798l1.438-.717s.074.159.159-.238c.08-.398-.159-.716 0-.797.157-.079.795-1.113.157-.954-.638.156-1.994 0-2.63.238-.637.239-1.431-.316-1.352.318.074.637-.005 1.195-.005 1.195zM86.599 8.722s.318 1.355.958.958c.636-.402 2.466.958 2.466 1.113 0 .164.636.083.636.083l2.792-.959 1.558-.237s1.47-.083 1.707.08c.236.157 1.437-.397 1.437-.397l.476-.801-1.037-.318.242-.796s-.321-.478-1.035.079c-.722.558-2.711 1.671-2.553 1.435.16-.24-.794.078-1.193-.401-.401-.476-.956-.557-.956-.557s-1.12-.397-1.514-.238c-.4.159.716-.796.716-.796s.239-.877-.243-.796c-.473.081-4.379.956-4.379.956s-1.673.955-1.99.715c-.318-.238-1.512.159-1.512.159l.796.478c.238-.239 2.628.24 2.628.24m17.765-3.265c.238.077 2.152.635 2.391.716s.958.239 1.271.16c.318-.079 1.594-.715 1.119-.955-.479-.238-1.993-.563-2.312-.724-.318-.158-1.515-.233-1.515-.233l-.717.155c-.16.239-.48.803-.24.881zm-7.648 1.354c.324-.158 1.437-.637 1.437-.637l.951-.795.322-.403s-.716-.633-1.035-.399c-.318.239-1.996.958-1.996.958l-.079.558-1.307.56s1.386.317 1.707.158m14.348-.238c.314.08 1.271.08 1.351-.16.079-.239-.079-1.916-.079-1.916s-.322-.474-.718-.395c-.398.079-1.671.713-1.671.713-.08.242.79 1.678 1.12 1.758zm-20.126 84.9c-.055-.177-.954-.47-1.431-.47s-2.212-1.678-2.328-2.037c-.124-.359-4.004-1.312-4.004-1.312s-4.243-.24-4.243-.357c0-.125-2.033 1.612-2.033 1.612v.178s.175.835.243 1.015c.056.178 1.372-.958 1.491-1.434s1.074-.599 1.312-.719c.243-.116.358.483.598.483.242 0 1.317.356 1.317.356l2.151.717.836.775s.357 1.908.357 2.151c0 .241 1.614.116 1.614.116l3.166-.292c-.001-.001 1.018-.602.954-.782m-.115 4.005c.295.119.772-.059 1.014-.059s1.018-.179 1.018-.179.238.538.238.718c0 .176 1.253-.062 1.253-.242s.299-.656.299-.656l1.491-.298s2.035.06 2.213.06c.18 0 .3-.358-.062-1.015-.355-.659-1.375-.782-1.614-1.261-.239-.474-1.372-.171-1.672 0-.298.181-1.968-.412-2.449-.412-.474 0 0 .537 0 .537l-.18 1.732h-1.97l-.061.178s-.539.18-.539.539c.002.358.719.239 1.021.358" fill="url(#a)"/><defs><linearGradient id="a" x1="0" y1="0" x2="0" y2="512" gradientUnits="userSpaceOnUse"><stop offset="0%" style="stop-color:#80808040"/><stop offset="100%" style="stop-color:#808080"/></linearGradient></defs></svg>