<?xml version="1.0" encoding="UTF-8"?>
<svg width="512" height="512" viewBox="0 0 512 512" fill="none" xmlns="http://www.w3.org/2000/svg">
    <!-- Main Circle -->
    <circle cx="256" cy="256" r="240" fill="url(#gradient)" stroke="white" stroke-width="16"/>
    
    <!-- Omega Symbol -->
    <path d="M256 120
             C190 120 136 174 136 240
             C136 306 190 360 256 360
             C322 360 376 306 376 240
             C376 174 322 120 256 120
             M256 160
             C300 160 336 196 336 240
             C336 284 300 320 256 320
             C212 320 176 284 176 240
             C176 196 212 160 256 160
             Z" 
          fill="white"/>
    
    <!-- Gradient Definition -->
    <defs>
        <linearGradient id="gradient" x1="0" y1="0" x2="512" y2="512" gradientUnits="userSpaceOnUse">
            <stop offset="0%" style="stop-color:#007AFF"/>
            <stop offset="100%" style="stop-color:#5856D6"/>
        </linearGradient>
    </defs>
</svg> 