<svg width="32" height="32" xmlns="http://www.w3.org/2000/svg">
 <title>ie</title>
 <g id="Layer_1">
  <title>Layer 1</title>
  <rect id="svg_8" height="32" width="32" y="0" x="0" stroke-width="0" stroke="#000" fill="#00007f"/>
  <path id="svg_3" d="m24.38693,7.01091c-1.46699,-1.32167 -4.79193,0.26433 -6.62567,1.33551c-0.5259,-0.08304 -1.07741,-0.12802 -1.65244,-0.12802c-2.31743,0 -4.18784,0.6816 -5.60916,1.96729c-1.61646,1.48014 -2.51256,3.41836 -2.51256,5.65829c0,0.01938 0.00069,0.03875 0.00069,0.05813c2.27452,-3.56368 5.77246,-5.39049 6.69971,-5.8728c0.1467,-0.06851 0.23389,0.10726 0.09757,0.17507c-0.01038,0.02906 -0.01038,0 0,0c-1.55971,0.93417 -4.45217,3.6391 -6.32881,7.53285l-0.00208,-0.00484c-1.18812,2.45444 -2.19149,5.90186 -0.18476,7.16749c1.52027,0.95631 4.24181,-0.17161 6.43191,-1.604c0.52867,0.07473 1.08433,0.11418 1.67112,0.11418c4.04114,0 6.87616,-2.23024 7.88783,-5.48322l-5.55103,-0.00969c-0.2332,1.14937 -1.01305,1.76315 -2.23024,1.76315c-1.52927,0 -2.58038,-0.83798 -2.64888,-2.77621l10.53741,-0.00969c0.01938,-0.39996 -0.02906,-0.6816 -0.02906,-0.99368c0,-3.63356 -2.17488,-6.47343 -5.71226,-7.37854c1.44,-0.89542 4.13386,-2.22055 5.43063,-1.16321c0.97361,0.78885 0.43802,2.44475 0.20413,3.12635c-0.03875,0.17576 0.16607,0.20482 0.20482,0.03944c0.48577,-1.22549 0.63247,-2.8717 -0.07889,-3.51385zm-10.19004,16.19915c-1.70849,1.02066 -4.06397,1.75693 -5.21681,0.89196c-0.86013,-0.647 -0.48162,-2.39977 0.27541,-4.10895c0.45947,0.68644 1.0345,1.30507 1.71126,1.8199c0.91479,0.68782 1.98943,1.15352 3.23014,1.3971zm-0.38612,-8.73965c0.02906,-1.68496 1.23656,-2.415 2.50288,-2.415c1.33413,0 2.415,0.76948 2.415,2.415l-4.91787,0z" opacity="undefined" stroke-width="0" stroke="#000" fill="#56ffaa"/>
 </g>

</svg>
