<svg width="32" height="32" xmlns="http://www.w3.org/2000/svg">
 <g id="Layer_1">
  <title>Layer 1</title>
  <path transform="rotate(-13 16 15.9999)" stroke="#000" id="svg_2" d="m6.73648,21.80843l18.51302,0.00707l-0.60075,0.88789l-17.30443,-0.0212l-0.60785,-0.87375l0,0zm0.12722,-11.8109l18.26564,-0.0212l0.53009,0.91084l-19.3329,0.00707l0.53717,-0.8967zm-1.8026,5.91828l21.85669,-0.0212l-0.02825,0.91084l-21.8143,-0.01414l-0.01414,-0.8755zm21.87478,0.08448c0,6.02995 -4.90634,10.93537 -10.93803,10.93537c-6.02909,0 -10.93451,-4.90631 -10.93451,-10.93537c0,-6.02909 4.90631,-10.93451 10.93451,-10.93451c6.0317,-0.00089 10.93803,4.90542 10.93803,10.93451zm-10.93717,-11.8109c-6.51036,0 -11.80824,5.29787 -11.80824,11.81001c0,6.51302 5.29787,11.81089 11.80824,11.81089c6.51391,0 11.8109,-5.29787 11.8109,-11.81089c0,-6.51214 -5.29699,-11.81001 -11.8109,-11.81001zm3.31372,11.8109c0,6.4435 -1.74573,10.93537 -3.31372,10.93537c-1.56622,0 -3.31192,-4.49187 -3.31192,-10.93537c0,-6.44528 1.74484,-10.93451 3.31192,-10.93451c1.56711,-0.00089 3.31372,4.48924 3.31372,10.93451zm-3.31372,-11.8109c-2.71974,0 -4.18742,6.08537 -4.18742,11.81001c0,5.72638 1.46767,11.81089 4.18742,11.81089c2.71977,0 4.1901,-6.0854 4.1901,-11.81089c-0.00089,-5.72464 -1.47033,-11.81001 -4.1901,-11.81001zm7.76072,11.8109c0,6.02995 -3.48265,10.93537 -7.76072,10.93537c-4.27718,0 -7.75806,-4.90631 -7.75806,-10.93537c0,-6.02909 3.48088,-10.93451 7.75806,-10.93451c4.27807,-0.00089 7.76072,4.90542 7.76072,10.93451zm-7.76072,-11.8109c-4.75937,0 -8.63356,5.29787 -8.63356,11.81001c0,6.51302 3.87418,11.81089 8.63356,11.81089c4.76115,0 8.63447,-5.29787 8.63447,-11.81089c0,-6.51214 -3.87332,-11.81001 -8.63447,-11.81001z" stroke-width="0" fill="#58e2e2"/>
 </g>
</svg>
