<svg width="512" height="512" viewBox="0 0 512 512" fill="none" xmlns="http://www.w3.org/2000/svg"><rect width="512" height="512" rx="128" fill="url(#a)"/><svg xmlns="http://www.w3.org/2000/svg" width="512" height="512" viewBox="0 0 256 256"><g stroke-miterlimit="10" font-family="none" font-weight="none" font-size="none" text-anchor="none" style="mix-blend-mode:normal"><path d="M194.56 141.653c.427-2.986.853-5.973.853-9.386s-.426-6.4-.853-9.387l19.2-13.653c1.707-1.28 2.56-3.84 1.28-5.974L196.267 71.68c-1.28-2.133-3.414-2.987-5.547-1.707l-21.333 9.814c-5.12-3.84-10.24-6.827-16.214-9.387l-2.133-23.467c-.427-2.133-2.133-3.84-4.267-3.84H110.08c-2.133 0-4.267 1.707-4.267 3.84L103.68 70.4c-5.973 2.56-11.52 5.547-16.213 9.387l-21.334-9.814c-2.133-.853-4.693 0-5.546 1.707L42.24 103.253c-1.28 2.134-.427 4.694 1.28 5.974l19.2 13.653c-.427 2.987-.853 5.973-.853 9.387s.426 6.4.853 9.386l-20.053 13.654c-1.707 1.28-2.56 3.84-1.28 5.973l18.346 31.573c1.28 2.134 3.414 2.987 5.547 1.707l21.333-9.813c5.12 3.84 10.24 6.826 16.214 9.386l2.133 23.467c.427 2.133 2.133 3.84 4.267 3.84h36.693c2.133 0 4.267-1.707 4.267-3.84l2.133-23.467c5.973-2.56 11.52-5.546 16.213-9.386l21.334 9.813c2.133.853 4.693 0 5.546-1.707l18.347-31.573c1.28-2.133.427-4.693-1.28-5.973zM128 174.933c-23.467 0-42.667-19.2-42.667-42.666S104.533 89.6 128 89.6s42.667 19.2 42.667 42.667-19.2 42.666-42.667 42.666" fill="#ffffff90"/><path d="M128 81.067c-28.16 0-51.2 23.04-51.2 51.2s23.04 51.2 51.2 51.2 51.2-23.04 51.2-51.2-23.04-51.2-51.2-51.2m0 72.533c-11.947 0-21.333-9.387-21.333-21.333s9.386-21.334 21.333-21.334 21.333 9.387 21.333 21.334S139.947 153.6 128 153.6" fill="#ffffff70"/></g></svg><defs><linearGradient id="a" x1="0" y1="0" x2="512" y2="512" gradientUnits="userSpaceOnUse"><stop offset="0%" style="stop-color:#757575"/><stop offset="100%" style="stop-color:#424242"/></linearGradient></defs></svg>