<svg width="512" height="512" viewBox="0 0 512 512" fill="none" xmlns="http://www.w3.org/2000/svg">
  <rect width="512" height="512" rx="128" fill="url(#b)" opacity="0.75"/>
  <rect width="512" height="512" rx="128" fill="#000" opacity="0.5"/>
  <svg version="1.2" xmlns="http://www.w3.org/2000/svg" viewBox="0 0 1024 1024" width="512" height="512">
    <path d="M481 177c-5.2.5-14.2 1.7-20 2.5-5.8.9-15.7 2.8-22 4.2s-16.9 4.1-23.5 6-18.1 5.9-25.5 8.8-17.6 7.2-22.5 9.5-13.5 6.7-19 9.7c-5.5 3.1-14.9 8.9-21 12.8-6.1 4-15.3 10.5-20.7 14.6-5.3 4.1-14.9 12.2-21.5 18-6.5 5.9-16.5 16-22.3 22.4s-13.8 16-17.9 21.4c-4 5.3-10.6 14.5-14.6 20.6-3.9 6.1-9.7 15.5-12.8 21-3 5.5-7.4 14.1-9.7 19s-6.6 15.1-9.5 22.5-6.4 17.3-7.8 22c-1.5 4.7-3.9 13.9-5.5 20.5-1.7 6.6-3.9 17.9-5.1 25-1.1 7.1-2.5 18.4-3.1 25-.5 6.6-1 19.6-1 29s.5 22.4 1 29c.6 6.6 2 17.6 3.1 24.5s3.3 17.9 4.9 24.5 4.2 16.3 5.8 21.5 4.7 14 6.7 19.5c2.1 5.5 6.3 15.4 9.3 22 3.1 6.6 8.3 17 11.7 23s9.3 15.7 13.1 21.5c3.8 5.7 10.3 14.8 14.4 20.1s12.1 14.8 17.7 21c5.6 6.3 15.4 16.1 21.8 21.9 6.5 5.8 16.1 13.9 21.4 18s14.4 10.6 20.1 14.4c5.8 3.8 15.4 9.7 21.5 13.1s16.1 8.5 22.2 11.3c6.2 2.9 11.9 5.2 12.5 5.2.7.1-1.9-3.2-5.9-7.2-3.9-4-9.1-9.8-11.6-12.8-2.4-3-7.2-9.8-10.7-15-3.4-5.2-8.4-14-11-19.5-2.7-5.5-6.7-15.4-8.9-22s-4.9-16.5-6-22c-1.2-5.5-2.6-16.1-3.2-23.5-.9-10.3-.9-16.7 0-27 .6-7.4 2.1-18 3.2-23.5s3.8-15.4 6-22 6.4-17 9.3-23c3-6 8.6-15.7 12.5-21.5 3.8-5.8 10.6-14.7 15-19.8 4.5-5 12.3-12.8 17.3-17.3 5.1-4.4 14-11.2 19.8-15.1 5.8-3.8 15.4-9.4 21.5-12.3 6.1-3 16.4-7.2 23-9.4s16.5-4.9 22-6c5.5-1.2 15.9-2.6 23-3.3 10.1-.9 16.1-.9 27 .1 7.7.6 19.2 2.3 25.5 3.8 6.3 1.4 16 4.1 21.5 6s14.7 5.8 20.5 8.7c5.8 2.8 14.5 7.8 19.5 11 5 3.3 12.1 8.4 16 11.4 3.9 3.1 11.2 9.8 16.2 14.9 5.1 5.1 12.6 13.7 16.6 19.1 4 5.3 9.8 14.2 13 19.7 3.1 5.5 7.7 15 10.1 21 2.5 6 5.7 15 7.1 20s3.4 14 4.5 20c1 6 2.2 16.2 2.5 22.5.4 6.5.2 16.7-.4 23.5-.6 6.6-2.1 16.7-3.2 22.5-1.2 5.8-3.7 15.2-5.5 21-1.9 5.8-6.1 15.9-9.3 22.5-3.3 6.6-8.6 16-11.8 21-3.3 5-8.3 11.9-11.3 15.5-2.9 3.6-7.8 9.1-10.9 12.3-3.1 3.1-5.3 5.7-4.9 5.7.5 0 5.9-2.3 12-5.2 6.2-2.8 16.3-7.9 22.3-11.3s15.7-9.3 21.5-13.1c5.7-3.8 14.8-10.3 20.1-14.4s14.9-12.2 21.4-18c6.4-5.8 16.2-15.6 21.8-21.9 5.6-6.2 13.6-15.7 17.7-21s10.6-14.4 14.4-20.1c3.8-5.8 9.7-15.5 13.1-21.5s8.6-16.4 11.7-23c3-6.6 7.2-16.5 9.3-22 2-5.5 5.1-14.3 6.7-19.5s4.2-14.9 5.8-21.5 3.8-17.6 4.9-24.5 2.5-17.9 3.1-24.5c.5-6.6 1-19.4 1-28.5s-.5-21.9-1-28.5c-.6-6.6-2-17.6-3.1-24.5s-3.1-17.7-4.5-24c-1.5-6.3-4.6-17.6-7-25s-6.5-18.9-9.2-25.5-7.5-17.1-10.6-23.2c-3.1-6.2-8.5-16.1-12-22-3.5-6-10.1-16-14.6-22.3s-11.4-15.3-15.3-20-11.9-13.4-17.7-19.4c-5.8-5.9-14.8-14.5-20-19.1-5.2-4.5-13.5-11.2-18.5-14.9-5-3.8-12.6-9.2-17-12.1s-13.6-8.5-20.5-12.4-17.5-9.3-23.5-12.1c-6-2.7-16.4-7-23-9.5s-18.1-6.3-25.5-8.4c-7.4-2.2-19.4-5.1-26.5-6.5s-18-3.3-24-4.2c-6.8-.9-21.2-1.6-37.5-1.9-14.6-.2-30.8 0-36 .5" style="fill:url(#a); stroke:url(#a); stroke-width: 24px"/>
  </svg>
  <defs>
    <linearGradient id="a" x1="0" y1="0" x2="512" y2="512" gradientUnits="userSpaceOnUse">
      <stop offset="0%" style="stop-color:#996699"/>
      <stop offset="100%" style="stop-color:#6666CC"/>
    </linearGradient>
    <linearGradient id="b" x1="0" y1="0" x2="512" y2="512" gradientUnits="userSpaceOnUse">
      <stop offset="0%" style="stop-color:#6666CC"/>
      <stop offset="100%" style="stop-color:#996699"/>
    </linearGradient>
  </defs>
</svg>
