<svg width="512" height="512" viewBox="0 0 512 512" fill="none" xmlns="http://www.w3.org/2000/svg">
  <rect width="512" height="512" rx="128" fill="url(#a)"/>
  <svg xmlns="http://www.w3.org/2000/svg" width="512" height="512" viewBox="0 0 256 256">
    <g stroke-miterlimit="10" font-family="none" font-weight="none" font-size="none" text-anchor="none" style="mix-blend-mode:normal">
      <path d="M196.267 76.8h-76.8L102.4 59.733H59.733c-9.386 0-17.066 7.68-17.066 17.067v34.133h170.666V93.867c0-9.387-7.68-17.067-17.066-17.067" fill="#ffffff80"/>
      <path d="M196.267 76.8H59.733c-9.386 0-17.066 7.68-17.066 17.067V179.2c0 9.387 7.68 17.067 17.066 17.067h136.534c9.386 0 17.066-7.68 17.066-17.067V93.867c0-9.387-7.68-17.067-17.066-17.067" fill="#fff"/>
    </g>
  </svg>
  <defs>
    <linearGradient id="a" x1="0" y1="0" x2="512" y2="512" gradientUnits="userSpaceOnUse">
      <stop offset="0%" style="stop-color:#1e88e5"/>
      <stop offset="100%" style="stop-color:#1565c0"/>
    </linearGradient>
  </defs>
</svg>
